%FSLAX44Y44*%
%MOMM*%
G71*
G01*
G75*
G04 Layer_Color=128*
%ADD10R,1.7780X1.1430*%
%ADD11R,1.1430X1.7780*%
%ADD12R,1.0700X2.1600*%
%ADD13C,1.2700*%
%ADD14C,0.6350*%
%ADD15C,0.5080*%
%ADD16C,1.5240*%
%ADD17C,2.5000*%
%ADD18C,1.8000*%
%ADD19C,2.4000*%
%ADD20O,2.0000X1.8000*%
%ADD21C,2.0000*%
%ADD22R,1.7000X2.0000*%
%ADD23O,1.7000X2.0000*%
%ADD24R,2.0000X1.8000*%
%ADD25C,3.0000*%
%ADD26R,1.8000X1.8000*%
%ADD27O,2.5000X3.0000*%
%ADD28C,6.0000*%
%ADD29C,0.1500*%
%ADD30C,0.2540*%
%ADD31C,0.2000*%
%ADD32R,1.9812X1.3462*%
%ADD33R,1.3462X1.9812*%
%ADD34R,1.2732X2.3632*%
%ADD35C,1.7272*%
%ADD36C,2.7032*%
%ADD37C,2.0032*%
%ADD38C,2.6032*%
%ADD39O,2.2032X2.0032*%
%ADD40C,2.2032*%
%ADD41R,1.9032X2.2032*%
%ADD42O,1.9032X2.2032*%
%ADD43R,2.2032X2.0032*%
%ADD44C,3.2032*%
%ADD45R,2.0032X2.0032*%
%ADD46O,2.7032X3.2032*%
%ADD47C,6.2032*%
G36*
X123190Y494030D02*
X104775D01*
Y445135D01*
X39370D01*
X38100Y446405D01*
Y493395D01*
X20320D01*
Y527050D01*
X123190D01*
Y494030D01*
D02*
G37*
D10*
X88900Y152400D02*
D03*
Y125222D02*
D03*
X317500Y139700D02*
D03*
Y166878D02*
D03*
X227330Y327660D02*
D03*
Y354838D02*
D03*
D11*
X128270Y54610D02*
D03*
X155448D02*
D03*
X266700Y203200D02*
D03*
X239522D02*
D03*
D12*
X105092Y387985D02*
D03*
X88092D02*
D03*
X71093D02*
D03*
X54092D02*
D03*
X37092D02*
D03*
M02*
