M48
;Layer_Color=9474304
;FILE_FORMAT=4:4
METRIC,LZ
;TYPE=PLATED
T1F00S00C0.7620
T2F00S00C0.9000
T3F00S00C1.0000
T4F00S00C1.1000
T5F00S00C1.2000
T6F00S00C1.3000
T7F00S00C1.5000
T8F00S00C3.0000
%
T01
X0014986Y000127
X0032004Y000889
X0034036
X0012954Y000127
X0018923Y0038862
Y0040894
T02
X002032Y000889
Y001143
Y001397
Y001651
X002794
Y001397
Y001143
Y000889
X002286Y002413
Y002667
T03
X001397Y001016
Y00127
Y001524
X004064
Y00127
Y001778
X004699Y001905
Y000889
T04
X001397Y0028321
X0003175Y001905
Y001651
Y001397
Y001143
Y000889
X0000635
Y001143
Y001397
Y001651
Y001905
X0Y003048
X000508
X001397Y0033401
T05
X-00004128Y00445135
X00148272
T06
X0029687Y0030702
X0035687Y0028702
X0041687Y0030702
Y0042902
X0029687
T07
X0022098Y00511175
X0027178
T08
X0045Y0
X0
Y0057785
X0045
M30
