%FSLAX44Y44*%
%MOMM*%
G71*
G01*
G75*
G04 Layer_Color=255*
%ADD10R,1.7780X1.1430*%
%ADD11R,1.1430X1.7780*%
%ADD12R,1.0700X2.1600*%
%ADD13C,1.2700*%
%ADD14C,0.6350*%
%ADD15C,0.5080*%
%ADD16C,1.5240*%
%ADD17C,2.5000*%
%ADD18C,1.8000*%
%ADD19C,2.4000*%
%ADD20O,2.0000X1.8000*%
%ADD21C,2.0000*%
%ADD22R,1.7000X2.0000*%
%ADD23O,1.7000X2.0000*%
%ADD24R,2.0000X1.8000*%
%ADD25C,3.0000*%
%ADD26R,1.8000X1.8000*%
%ADD27O,2.5000X3.0000*%
%ADD28C,6.0000*%
D10*
X88900Y152400D02*
D03*
Y125222D02*
D03*
X317500Y139700D02*
D03*
Y166878D02*
D03*
X227330Y327660D02*
D03*
Y354838D02*
D03*
D11*
X128270Y54610D02*
D03*
X155448D02*
D03*
X266700Y203200D02*
D03*
X239522D02*
D03*
D12*
X105092Y387985D02*
D03*
X88092D02*
D03*
X71093D02*
D03*
X54092D02*
D03*
X37092D02*
D03*
D16*
X189230Y388620D02*
D03*
Y408940D02*
D03*
X320040Y88900D02*
D03*
X340360D02*
D03*
X149860Y12700D02*
D03*
X129540D02*
D03*
D17*
X50800Y304800D02*
D03*
X0D02*
D03*
D18*
X469900Y190500D02*
D03*
Y88900D02*
D03*
X279400D02*
D03*
Y114300D02*
D03*
Y139700D02*
D03*
Y165100D02*
D03*
X203200Y88900D02*
D03*
Y114300D02*
D03*
Y139700D02*
D03*
D19*
X148272Y445135D02*
D03*
X-4128D02*
D03*
D20*
X228600Y266700D02*
D03*
Y241300D02*
D03*
X139700Y152400D02*
D03*
Y127000D02*
D03*
X406400D02*
D03*
Y152400D02*
D03*
D21*
X139700Y283210D02*
D03*
Y334010D02*
D03*
D22*
X31750Y88900D02*
D03*
D23*
X6350D02*
D03*
X31750Y114300D02*
D03*
X6350D02*
D03*
X31750Y139700D02*
D03*
X6350D02*
D03*
X31750Y165100D02*
D03*
X6350D02*
D03*
X31750Y190500D02*
D03*
X6350D02*
D03*
D24*
X139700Y101600D02*
D03*
X406400Y177800D02*
D03*
D25*
X296870Y429020D02*
D03*
X416870D02*
D03*
X296870Y307020D02*
D03*
X416870D02*
D03*
X356870Y287020D02*
D03*
D26*
X203200Y165100D02*
D03*
D27*
X220980Y511175D02*
D03*
X271780D02*
D03*
M02*
