%FSLAX44Y44*%
%MOMM*%
G71*
G01*
G75*
%ADD10R,1.7780X1.1430*%
%ADD11R,1.1430X1.7780*%
%ADD12R,1.0700X2.1600*%
%ADD13C,1.2700*%
%ADD14C,0.6350*%
%ADD15C,0.5080*%
%ADD16C,1.5240*%
%ADD17C,2.5000*%
%ADD18C,1.8000*%
%ADD19C,2.4000*%
%ADD20O,2.0000X1.8000*%
%ADD21C,2.0000*%
%ADD22R,1.7000X2.0000*%
%ADD23O,1.7000X2.0000*%
%ADD24R,2.0000X1.8000*%
%ADD25C,3.0000*%
%ADD26R,1.8000X1.8000*%
%ADD27O,2.5000X3.0000*%
%ADD28C,6.0000*%
%ADD29C,0.1500*%
%ADD30C,0.2540*%
%ADD31C,0.2000*%
G36*
X176559Y448621D02*
X176754Y448602D01*
X176988Y448563D01*
X177242Y448524D01*
X177515Y448465D01*
X177827Y448387D01*
X178119Y448290D01*
X178451Y448192D01*
X178763Y448056D01*
X179075Y447880D01*
X179387Y447705D01*
X179680Y447490D01*
X179973Y447236D01*
X179992D01*
X180012Y447197D01*
X180109Y447080D01*
X180265Y446905D01*
X180460Y446632D01*
X180675Y446300D01*
X180909Y445910D01*
X181124Y445442D01*
X181299Y444895D01*
X178744Y444291D01*
Y444310D01*
X178724Y444330D01*
X178705Y444447D01*
X178627Y444622D01*
X178529Y444856D01*
X178412Y445110D01*
X178237Y445364D01*
X178041Y445617D01*
X177788Y445851D01*
X177749Y445871D01*
X177651Y445949D01*
X177515Y446046D01*
X177300Y446144D01*
X177047Y446261D01*
X176734Y446339D01*
X176403Y446417D01*
X176032Y446437D01*
X175896D01*
X175798Y446417D01*
X175681Y446398D01*
X175544Y446378D01*
X175213Y446300D01*
X174842Y446183D01*
X174452Y446007D01*
X174277Y445890D01*
X174081Y445754D01*
X173906Y445578D01*
X173730Y445403D01*
Y445383D01*
X173691Y445364D01*
X173652Y445286D01*
X173594Y445207D01*
X173535Y445090D01*
X173457Y444954D01*
X173379Y444798D01*
X173301Y444603D01*
X173204Y444388D01*
X173126Y444154D01*
X173048Y443881D01*
X172989Y443569D01*
X172931Y443257D01*
X172892Y442886D01*
X172872Y442496D01*
X172852Y442086D01*
Y442067D01*
Y441989D01*
Y441852D01*
X172872Y441696D01*
Y441482D01*
X172892Y441267D01*
X172931Y441013D01*
X172969Y440740D01*
X173067Y440175D01*
X173223Y439590D01*
X173321Y439316D01*
X173438Y439063D01*
X173555Y438829D01*
X173711Y438614D01*
X173730Y438595D01*
X173750Y438575D01*
X173867Y438458D01*
X174062Y438302D01*
X174315Y438107D01*
X174647Y437912D01*
X175037Y437756D01*
X175486Y437639D01*
X175720Y437619D01*
X175974Y437600D01*
X176071D01*
X176149Y437619D01*
X176344Y437639D01*
X176578Y437678D01*
X176871Y437756D01*
X177164Y437873D01*
X177456Y438029D01*
X177749Y438243D01*
X177788Y438283D01*
X177866Y438360D01*
X178002Y438536D01*
X178158Y438751D01*
X178334Y439043D01*
X178510Y439414D01*
X178685Y439824D01*
X178822Y440331D01*
X181338Y439551D01*
Y439531D01*
X181319Y439453D01*
X181280Y439355D01*
X181221Y439199D01*
X181163Y439024D01*
X181084Y438829D01*
X180987Y438595D01*
X180870Y438360D01*
X180616Y437853D01*
X180285Y437327D01*
X179875Y436839D01*
X179660Y436605D01*
X179407Y436410D01*
X179387Y436390D01*
X179348Y436371D01*
X179270Y436312D01*
X179173Y436254D01*
X179036Y436176D01*
X178880Y436098D01*
X178685Y436000D01*
X178471Y435903D01*
X178237Y435805D01*
X177983Y435708D01*
X177710Y435630D01*
X177417Y435551D01*
X177085Y435493D01*
X176754Y435434D01*
X176383Y435415D01*
X176013Y435395D01*
X175896D01*
X175759Y435415D01*
X175583D01*
X175369Y435454D01*
X175115Y435493D01*
X174842Y435532D01*
X174530Y435610D01*
X174198Y435708D01*
X173867Y435825D01*
X173516Y435961D01*
X173165Y436137D01*
X172813Y436332D01*
X172462Y436566D01*
X172131Y436819D01*
X171819Y437132D01*
X171799Y437151D01*
X171741Y437210D01*
X171663Y437307D01*
X171565Y437444D01*
X171448Y437619D01*
X171292Y437834D01*
X171155Y438087D01*
X170999Y438380D01*
X170843Y438692D01*
X170707Y439063D01*
X170570Y439453D01*
X170434Y439882D01*
X170336Y440331D01*
X170258Y440818D01*
X170200Y441345D01*
X170180Y441891D01*
Y441930D01*
Y442028D01*
X170200Y442203D01*
Y442418D01*
X170238Y442691D01*
X170258Y443003D01*
X170317Y443335D01*
X170395Y443705D01*
X170473Y444115D01*
X170590Y444505D01*
X170707Y444934D01*
X170863Y445344D01*
X171058Y445754D01*
X171272Y446144D01*
X171526Y446515D01*
X171819Y446866D01*
X171838Y446885D01*
X171897Y446944D01*
X171994Y447022D01*
X172111Y447139D01*
X172287Y447275D01*
X172482Y447431D01*
X172716Y447587D01*
X172989Y447763D01*
X173282Y447919D01*
X173613Y448075D01*
X173964Y448231D01*
X174354Y448368D01*
X174764Y448485D01*
X175213Y448563D01*
X175681Y448621D01*
X176169Y448641D01*
X176403D01*
X176559Y448621D01*
D02*
G37*
G36*
X-5366Y360321D02*
X-3786D01*
Y358175D01*
X-5366D01*
Y355600D01*
X-7746D01*
Y358175D01*
X-12993D01*
Y360301D01*
X-7434Y368455D01*
X-5366D01*
Y360321D01*
D02*
G37*
G36*
X187346Y448446D02*
X187502Y448426D01*
X187678Y448407D01*
X187892Y448368D01*
X188107Y448329D01*
X188556Y448173D01*
X188809Y448095D01*
X189044Y447978D01*
X189277Y447841D01*
X189531Y447685D01*
X189746Y447509D01*
X189960Y447295D01*
X189980Y447275D01*
X189999Y447256D01*
X190038Y447197D01*
X190097Y447139D01*
X190253Y446944D01*
X190429Y446671D01*
X190585Y446358D01*
X190741Y446007D01*
X190838Y445598D01*
X190877Y445383D01*
Y445168D01*
Y445149D01*
Y445090D01*
X190858Y445013D01*
Y444895D01*
X190819Y444739D01*
X190780Y444583D01*
X190721Y444408D01*
X190643Y444213D01*
X190546Y443998D01*
X190429Y443783D01*
X190272Y443549D01*
X190097Y443335D01*
X189882Y443101D01*
X189629Y442886D01*
X189356Y442672D01*
X189024Y442477D01*
X189044D01*
X189083Y442457D01*
X189121D01*
X189200Y442438D01*
X189414Y442360D01*
X189648Y442262D01*
X189941Y442125D01*
X190233Y441930D01*
X190506Y441696D01*
X190780Y441423D01*
X190799Y441384D01*
X190877Y441287D01*
X190994Y441111D01*
X191111Y440877D01*
X191228Y440584D01*
X191345Y440233D01*
X191423Y439863D01*
X191443Y439433D01*
Y439414D01*
Y439355D01*
Y439277D01*
X191423Y439160D01*
X191404Y439004D01*
X191384Y438848D01*
X191345Y438653D01*
X191287Y438438D01*
X191131Y437990D01*
X191033Y437756D01*
X190916Y437522D01*
X190780Y437268D01*
X190604Y437034D01*
X190409Y436800D01*
X190194Y436566D01*
X190175Y436546D01*
X190136Y436507D01*
X190077Y436449D01*
X189980Y436390D01*
X189863Y436293D01*
X189707Y436195D01*
X189551Y436078D01*
X189356Y435981D01*
X189141Y435864D01*
X188907Y435747D01*
X188653Y435649D01*
X188380Y435571D01*
X188088Y435493D01*
X187795Y435434D01*
X187463Y435395D01*
X187132Y435376D01*
X186956D01*
X186839Y435395D01*
X186683Y435415D01*
X186507Y435434D01*
X186313Y435454D01*
X186117Y435493D01*
X185649Y435610D01*
X185161Y435805D01*
X184927Y435903D01*
X184674Y436039D01*
X184440Y436195D01*
X184225Y436371D01*
X184206Y436390D01*
X184186Y436410D01*
X184128Y436468D01*
X184050Y436546D01*
X183952Y436644D01*
X183855Y436780D01*
X183757Y436917D01*
X183640Y437073D01*
X183406Y437444D01*
X183191Y437892D01*
X183016Y438400D01*
X182957Y438692D01*
X182918Y438985D01*
X185298Y439277D01*
Y439258D01*
Y439238D01*
X185318Y439121D01*
X185357Y438965D01*
X185415Y438751D01*
X185493Y438536D01*
X185591Y438302D01*
X185727Y438068D01*
X185903Y437873D01*
X185922Y437853D01*
X186000Y437795D01*
X186098Y437717D01*
X186254Y437639D01*
X186430Y437561D01*
X186625Y437483D01*
X186859Y437424D01*
X187112Y437405D01*
X187249D01*
X187385Y437444D01*
X187561Y437483D01*
X187756Y437541D01*
X187971Y437639D01*
X188185Y437775D01*
X188400Y437970D01*
X188419Y437990D01*
X188478Y438087D01*
X188575Y438204D01*
X188673Y438380D01*
X188751Y438614D01*
X188848Y438887D01*
X188907Y439199D01*
X188926Y439551D01*
Y439570D01*
Y439590D01*
Y439706D01*
X188907Y439882D01*
X188868Y440097D01*
X188809Y440331D01*
X188712Y440565D01*
X188595Y440818D01*
X188419Y441033D01*
X188400Y441053D01*
X188322Y441111D01*
X188224Y441209D01*
X188068Y441306D01*
X187892Y441404D01*
X187678Y441501D01*
X187444Y441560D01*
X187190Y441579D01*
X187015D01*
X186878Y441560D01*
X186722Y441540D01*
X186527Y441501D01*
X186313Y441443D01*
X186078Y441384D01*
X186352Y443374D01*
X186507D01*
X186703Y443393D01*
X186917Y443413D01*
X187151Y443452D01*
X187405Y443530D01*
X187659Y443647D01*
X187873Y443783D01*
X187892Y443803D01*
X187951Y443862D01*
X188049Y443979D01*
X188146Y444115D01*
X188244Y444291D01*
X188341Y444505D01*
X188400Y444739D01*
X188419Y445013D01*
Y445032D01*
Y445130D01*
X188400Y445247D01*
X188380Y445383D01*
X188322Y445539D01*
X188263Y445715D01*
X188166Y445890D01*
X188029Y446046D01*
X188010Y446066D01*
X187951Y446105D01*
X187873Y446163D01*
X187756Y446241D01*
X187600Y446320D01*
X187424Y446378D01*
X187210Y446417D01*
X186976Y446437D01*
X186878D01*
X186761Y446417D01*
X186605Y446378D01*
X186430Y446320D01*
X186254Y446241D01*
X186059Y446144D01*
X185883Y445988D01*
X185864Y445968D01*
X185805Y445910D01*
X185747Y445812D01*
X185649Y445676D01*
X185552Y445481D01*
X185474Y445266D01*
X185396Y445013D01*
X185357Y444720D01*
X183094Y445090D01*
Y445110D01*
X183113Y445149D01*
Y445207D01*
X183133Y445286D01*
X183191Y445500D01*
X183269Y445773D01*
X183367Y446066D01*
X183484Y446378D01*
X183640Y446690D01*
X183796Y446963D01*
X183815Y447002D01*
X183894Y447080D01*
X183991Y447197D01*
X184147Y447373D01*
X184342Y447548D01*
X184557Y447724D01*
X184830Y447900D01*
X185123Y448056D01*
X185142D01*
X185161Y448075D01*
X185279Y448114D01*
X185454Y448192D01*
X185688Y448270D01*
X185981Y448329D01*
X186293Y448407D01*
X186664Y448446D01*
X187054Y448465D01*
X187229D01*
X187346Y448446D01*
D02*
G37*
G36*
X118961Y50936D02*
X119117Y50916D01*
X119312Y50897D01*
X119508Y50877D01*
X119742Y50819D01*
X120210Y50702D01*
X120717Y50526D01*
X120951Y50409D01*
X121205Y50272D01*
X121419Y50097D01*
X121634Y49921D01*
X121653Y49902D01*
X121673Y49882D01*
X121731Y49824D01*
X121810Y49746D01*
X121888Y49648D01*
X121985Y49512D01*
X122180Y49219D01*
X122375Y48849D01*
X122551Y48419D01*
X122687Y47932D01*
X122707Y47659D01*
X122726Y47385D01*
Y47346D01*
Y47249D01*
X122707Y47073D01*
X122687Y46859D01*
X122648Y46605D01*
X122590Y46332D01*
X122512Y46020D01*
X122414Y45727D01*
X122395Y45688D01*
X122356Y45591D01*
X122278Y45435D01*
X122180Y45240D01*
X122044Y44986D01*
X121868Y44713D01*
X121653Y44420D01*
X121419Y44108D01*
X121400Y44089D01*
X121341Y44011D01*
X121224Y43874D01*
X121049Y43699D01*
X120834Y43464D01*
X120541Y43172D01*
X120210Y42840D01*
X119800Y42470D01*
X119781Y42450D01*
X119742Y42431D01*
X119683Y42372D01*
X119625Y42294D01*
X119430Y42119D01*
X119195Y41884D01*
X118942Y41650D01*
X118708Y41416D01*
X118493Y41202D01*
X118415Y41124D01*
X118337Y41046D01*
X118318Y41026D01*
X118279Y40987D01*
X118220Y40929D01*
X118162Y40831D01*
X117986Y40636D01*
X117830Y40382D01*
X122726D01*
Y38100D01*
X114124D01*
Y38119D01*
Y38159D01*
X114143Y38237D01*
X114163Y38315D01*
X114182Y38432D01*
X114202Y38568D01*
X114280Y38880D01*
X114377Y39270D01*
X114533Y39680D01*
X114709Y40109D01*
X114943Y40538D01*
Y40558D01*
X114982Y40597D01*
X115021Y40655D01*
X115079Y40753D01*
X115177Y40870D01*
X115274Y41007D01*
X115411Y41182D01*
X115548Y41358D01*
X115723Y41572D01*
X115938Y41806D01*
X116152Y42060D01*
X116406Y42333D01*
X116699Y42626D01*
X116991Y42938D01*
X117342Y43269D01*
X117713Y43621D01*
X117732Y43640D01*
X117791Y43679D01*
X117869Y43777D01*
X117986Y43874D01*
X118103Y43991D01*
X118259Y44147D01*
X118591Y44459D01*
X118942Y44811D01*
X119274Y45162D01*
X119430Y45318D01*
X119566Y45454D01*
X119683Y45591D01*
X119761Y45708D01*
X119781Y45747D01*
X119839Y45844D01*
X119917Y45981D01*
X120015Y46176D01*
X120112Y46410D01*
X120190Y46664D01*
X120249Y46937D01*
X120268Y47210D01*
Y47249D01*
Y47346D01*
X120249Y47502D01*
X120210Y47678D01*
X120151Y47873D01*
X120073Y48088D01*
X119976Y48302D01*
X119820Y48478D01*
X119800Y48497D01*
X119742Y48556D01*
X119644Y48614D01*
X119508Y48712D01*
X119332Y48790D01*
X119117Y48849D01*
X118864Y48907D01*
X118591Y48927D01*
X118474D01*
X118318Y48907D01*
X118162Y48868D01*
X117966Y48809D01*
X117752Y48731D01*
X117557Y48614D01*
X117362Y48458D01*
X117342Y48439D01*
X117284Y48361D01*
X117225Y48263D01*
X117128Y48088D01*
X117050Y47873D01*
X116952Y47620D01*
X116894Y47288D01*
X116855Y46917D01*
X114416Y47151D01*
Y47171D01*
X114436Y47249D01*
Y47346D01*
X114475Y47483D01*
X114494Y47659D01*
X114553Y47834D01*
X114592Y48049D01*
X114670Y48283D01*
X114845Y48751D01*
X115079Y49239D01*
X115236Y49473D01*
X115392Y49687D01*
X115587Y49882D01*
X115782Y50058D01*
X115801Y50077D01*
X115840Y50097D01*
X115899Y50136D01*
X115996Y50195D01*
X116094Y50272D01*
X116230Y50350D01*
X116386Y50429D01*
X116581Y50507D01*
X116777Y50585D01*
X116991Y50663D01*
X117479Y50819D01*
X118025Y50916D01*
X118337Y50955D01*
X118825D01*
X118961Y50936D01*
D02*
G37*
G36*
X107979Y51111D02*
X108174Y51092D01*
X108408Y51053D01*
X108662Y51014D01*
X108935Y50955D01*
X109247Y50877D01*
X109539Y50780D01*
X109871Y50682D01*
X110183Y50546D01*
X110495Y50370D01*
X110807Y50195D01*
X111100Y49980D01*
X111393Y49726D01*
X111412D01*
X111432Y49687D01*
X111529Y49570D01*
X111685Y49395D01*
X111880Y49122D01*
X112095Y48790D01*
X112329Y48400D01*
X112543Y47932D01*
X112719Y47385D01*
X110164Y46781D01*
Y46800D01*
X110144Y46820D01*
X110125Y46937D01*
X110047Y47112D01*
X109949Y47346D01*
X109832Y47600D01*
X109656Y47854D01*
X109461Y48107D01*
X109208Y48341D01*
X109169Y48361D01*
X109071Y48439D01*
X108935Y48536D01*
X108720Y48634D01*
X108467Y48751D01*
X108154Y48829D01*
X107823Y48907D01*
X107452Y48927D01*
X107316D01*
X107218Y48907D01*
X107101Y48888D01*
X106965Y48868D01*
X106633Y48790D01*
X106262Y48673D01*
X105872Y48497D01*
X105696Y48380D01*
X105501Y48244D01*
X105326Y48068D01*
X105150Y47893D01*
Y47873D01*
X105111Y47854D01*
X105072Y47776D01*
X105014Y47698D01*
X104955Y47580D01*
X104877Y47444D01*
X104799Y47288D01*
X104721Y47093D01*
X104624Y46878D01*
X104546Y46644D01*
X104468Y46371D01*
X104409Y46059D01*
X104351Y45747D01*
X104312Y45376D01*
X104292Y44986D01*
X104272Y44576D01*
Y44557D01*
Y44479D01*
Y44342D01*
X104292Y44186D01*
Y43972D01*
X104312Y43757D01*
X104351Y43503D01*
X104389Y43230D01*
X104487Y42665D01*
X104643Y42080D01*
X104741Y41806D01*
X104858Y41553D01*
X104975Y41319D01*
X105131Y41104D01*
X105150Y41085D01*
X105170Y41065D01*
X105287Y40948D01*
X105482Y40792D01*
X105736Y40597D01*
X106067Y40402D01*
X106457Y40246D01*
X106906Y40129D01*
X107140Y40109D01*
X107394Y40090D01*
X107491D01*
X107569Y40109D01*
X107764Y40129D01*
X107998Y40168D01*
X108291Y40246D01*
X108584Y40363D01*
X108876Y40519D01*
X109169Y40733D01*
X109208Y40773D01*
X109286Y40851D01*
X109422Y41026D01*
X109578Y41241D01*
X109754Y41533D01*
X109930Y41904D01*
X110105Y42314D01*
X110242Y42821D01*
X112758Y42041D01*
Y42021D01*
X112739Y41943D01*
X112700Y41845D01*
X112641Y41689D01*
X112583Y41514D01*
X112505Y41319D01*
X112407Y41085D01*
X112290Y40851D01*
X112036Y40343D01*
X111705Y39817D01*
X111295Y39329D01*
X111081Y39095D01*
X110827Y38900D01*
X110807Y38880D01*
X110768Y38861D01*
X110690Y38802D01*
X110593Y38744D01*
X110456Y38666D01*
X110300Y38588D01*
X110105Y38490D01*
X109891Y38393D01*
X109656Y38295D01*
X109403Y38198D01*
X109130Y38119D01*
X108837Y38042D01*
X108505Y37983D01*
X108174Y37924D01*
X107803Y37905D01*
X107433Y37885D01*
X107316D01*
X107179Y37905D01*
X107003D01*
X106789Y37944D01*
X106535Y37983D01*
X106262Y38022D01*
X105950Y38100D01*
X105618Y38198D01*
X105287Y38315D01*
X104936Y38451D01*
X104585Y38627D01*
X104234Y38822D01*
X103882Y39056D01*
X103551Y39309D01*
X103239Y39622D01*
X103219Y39641D01*
X103161Y39700D01*
X103083Y39797D01*
X102985Y39934D01*
X102868Y40109D01*
X102712Y40324D01*
X102575Y40577D01*
X102419Y40870D01*
X102263Y41182D01*
X102127Y41553D01*
X101990Y41943D01*
X101854Y42372D01*
X101756Y42821D01*
X101678Y43308D01*
X101620Y43835D01*
X101600Y44381D01*
Y44420D01*
Y44518D01*
X101620Y44693D01*
Y44908D01*
X101658Y45181D01*
X101678Y45493D01*
X101737Y45825D01*
X101815Y46196D01*
X101893Y46605D01*
X102010Y46995D01*
X102127Y47424D01*
X102283Y47834D01*
X102478Y48244D01*
X102692Y48634D01*
X102946Y49005D01*
X103239Y49356D01*
X103258Y49375D01*
X103317Y49434D01*
X103414Y49512D01*
X103531Y49629D01*
X103707Y49765D01*
X103902Y49921D01*
X104136Y50077D01*
X104409Y50253D01*
X104702Y50409D01*
X105033Y50565D01*
X105384Y50721D01*
X105774Y50858D01*
X106184Y50975D01*
X106633Y51053D01*
X107101Y51111D01*
X107589Y51131D01*
X107823D01*
X107979Y51111D01*
D02*
G37*
G36*
X31917Y477617D02*
X32269Y477597D01*
X32678Y477578D01*
X33068Y477539D01*
X33458Y477461D01*
X33810Y477383D01*
X33829D01*
X33868Y477363D01*
X33927Y477344D01*
X34005Y477324D01*
X34200Y477227D01*
X34473Y477109D01*
X34766Y476954D01*
X35078Y476739D01*
X35409Y476485D01*
X35721Y476193D01*
X35741D01*
X35760Y476154D01*
X35858Y476037D01*
X35994Y475861D01*
X36189Y475627D01*
X36385Y475315D01*
X36580Y474964D01*
X36775Y474574D01*
X36950Y474125D01*
Y474105D01*
X36970Y474066D01*
X36989Y474008D01*
X37009Y473910D01*
X37048Y473793D01*
X37087Y473637D01*
X37126Y473481D01*
X37165Y473286D01*
X37204Y473072D01*
X37243Y472857D01*
X37321Y472330D01*
X37360Y471745D01*
X37380Y471101D01*
Y471082D01*
Y471023D01*
Y470945D01*
Y470828D01*
X37360Y470692D01*
Y470536D01*
X37321Y470165D01*
X37282Y469736D01*
X37204Y469287D01*
X37106Y468819D01*
X36970Y468370D01*
Y468351D01*
X36950Y468312D01*
X36931Y468234D01*
X36892Y468136D01*
X36833Y468019D01*
X36775Y467883D01*
X36619Y467570D01*
X36424Y467200D01*
X36189Y466829D01*
X35916Y466459D01*
X35604Y466107D01*
X35565Y466088D01*
X35487Y465990D01*
X35331Y465873D01*
X35136Y465737D01*
X34863Y465561D01*
X34551Y465386D01*
X34200Y465230D01*
X33790Y465074D01*
X33751Y465054D01*
X33634Y465035D01*
X33458Y464996D01*
X33185Y464957D01*
X32873Y464898D01*
X32483Y464859D01*
X32015Y464840D01*
X31508Y464820D01*
X26670D01*
Y477636D01*
X31761D01*
X31917Y477617D01*
D02*
G37*
G36*
X43563Y477656D02*
X43719Y477636D01*
X43914Y477617D01*
X44109Y477597D01*
X44344Y477539D01*
X44812Y477422D01*
X45319Y477246D01*
X45553Y477129D01*
X45807Y476992D01*
X46021Y476817D01*
X46236Y476641D01*
X46255Y476622D01*
X46275Y476602D01*
X46333Y476544D01*
X46411Y476466D01*
X46489Y476368D01*
X46587Y476232D01*
X46782Y475939D01*
X46977Y475569D01*
X47153Y475139D01*
X47289Y474652D01*
X47309Y474379D01*
X47328Y474105D01*
Y474066D01*
Y473969D01*
X47309Y473793D01*
X47289Y473579D01*
X47250Y473325D01*
X47192Y473052D01*
X47113Y472740D01*
X47016Y472447D01*
X46996Y472408D01*
X46958Y472311D01*
X46880Y472155D01*
X46782Y471960D01*
X46645Y471706D01*
X46470Y471433D01*
X46255Y471140D01*
X46021Y470828D01*
X46002Y470809D01*
X45943Y470731D01*
X45826Y470594D01*
X45651Y470419D01*
X45436Y470185D01*
X45143Y469892D01*
X44812Y469560D01*
X44402Y469190D01*
X44383Y469170D01*
X44344Y469151D01*
X44285Y469092D01*
X44226Y469014D01*
X44031Y468839D01*
X43797Y468604D01*
X43544Y468370D01*
X43310Y468136D01*
X43095Y467922D01*
X43017Y467844D01*
X42939Y467766D01*
X42920Y467746D01*
X42881Y467707D01*
X42822Y467649D01*
X42763Y467551D01*
X42588Y467356D01*
X42432Y467102D01*
X47328D01*
Y464820D01*
X38725D01*
Y464840D01*
Y464879D01*
X38745Y464957D01*
X38765Y465035D01*
X38784Y465152D01*
X38804Y465288D01*
X38881Y465600D01*
X38979Y465990D01*
X39135Y466400D01*
X39311Y466829D01*
X39545Y467258D01*
Y467278D01*
X39584Y467317D01*
X39623Y467375D01*
X39681Y467473D01*
X39779Y467590D01*
X39876Y467727D01*
X40013Y467902D01*
X40149Y468078D01*
X40325Y468292D01*
X40540Y468526D01*
X40754Y468780D01*
X41008Y469053D01*
X41300Y469346D01*
X41593Y469658D01*
X41944Y469989D01*
X42315Y470340D01*
X42334Y470360D01*
X42393Y470399D01*
X42471Y470497D01*
X42588Y470594D01*
X42705Y470711D01*
X42861Y470867D01*
X43193Y471179D01*
X43544Y471530D01*
X43875Y471882D01*
X44031Y472038D01*
X44168Y472174D01*
X44285Y472311D01*
X44363Y472428D01*
X44383Y472467D01*
X44441Y472564D01*
X44519Y472701D01*
X44617Y472896D01*
X44714Y473130D01*
X44792Y473384D01*
X44851Y473657D01*
X44870Y473930D01*
Y473969D01*
Y474066D01*
X44851Y474222D01*
X44812Y474398D01*
X44753Y474593D01*
X44675Y474808D01*
X44578Y475022D01*
X44422Y475198D01*
X44402Y475217D01*
X44344Y475276D01*
X44246Y475334D01*
X44109Y475432D01*
X43934Y475510D01*
X43719Y475569D01*
X43466Y475627D01*
X43193Y475647D01*
X43076D01*
X42920Y475627D01*
X42763Y475588D01*
X42568Y475530D01*
X42354Y475451D01*
X42159Y475334D01*
X41964Y475178D01*
X41944Y475159D01*
X41886Y475081D01*
X41827Y474983D01*
X41730Y474808D01*
X41652Y474593D01*
X41554Y474339D01*
X41495Y474008D01*
X41456Y473637D01*
X39018Y473871D01*
Y473891D01*
X39038Y473969D01*
Y474066D01*
X39077Y474203D01*
X39096Y474379D01*
X39155Y474554D01*
X39194Y474769D01*
X39272Y475003D01*
X39447Y475471D01*
X39681Y475959D01*
X39837Y476193D01*
X39993Y476407D01*
X40188Y476602D01*
X40384Y476778D01*
X40403Y476797D01*
X40442Y476817D01*
X40501Y476856D01*
X40598Y476914D01*
X40696Y476992D01*
X40832Y477071D01*
X40988Y477149D01*
X41183Y477227D01*
X41378Y477305D01*
X41593Y477383D01*
X42081Y477539D01*
X42627Y477636D01*
X42939Y477675D01*
X43427D01*
X43563Y477656D01*
D02*
G37*
G36*
X479678Y208280D02*
X477220D01*
Y217526D01*
X477201Y217507D01*
X477162Y217468D01*
X477084Y217409D01*
X476986Y217312D01*
X476850Y217214D01*
X476694Y217097D01*
X476518Y216961D01*
X476304Y216824D01*
X476089Y216668D01*
X475835Y216512D01*
X475309Y216219D01*
X474704Y215927D01*
X474041Y215673D01*
Y217897D01*
X474060D01*
X474080Y217917D01*
X474138Y217936D01*
X474216Y217956D01*
X474411Y218034D01*
X474665Y218170D01*
X474977Y218326D01*
X475328Y218541D01*
X475718Y218775D01*
X476128Y219087D01*
X476148Y219107D01*
X476187Y219126D01*
X476245Y219184D01*
X476304Y219243D01*
X476499Y219419D01*
X476752Y219672D01*
X477006Y219965D01*
X477259Y220316D01*
X477494Y220706D01*
X477669Y221135D01*
X479678D01*
Y208280D01*
D02*
G37*
G36*
X-19021Y368611D02*
X-18826Y368592D01*
X-18592Y368553D01*
X-18338Y368514D01*
X-18065Y368455D01*
X-17753Y368377D01*
X-17461Y368280D01*
X-17129Y368182D01*
X-16817Y368046D01*
X-16505Y367870D01*
X-16193Y367695D01*
X-15900Y367480D01*
X-15607Y367226D01*
X-15588D01*
X-15568Y367187D01*
X-15471Y367070D01*
X-15315Y366895D01*
X-15120Y366622D01*
X-14905Y366290D01*
X-14671Y365900D01*
X-14456Y365432D01*
X-14281Y364885D01*
X-16836Y364281D01*
Y364300D01*
X-16856Y364320D01*
X-16875Y364437D01*
X-16953Y364612D01*
X-17051Y364846D01*
X-17168Y365100D01*
X-17343Y365354D01*
X-17539Y365607D01*
X-17792Y365841D01*
X-17831Y365861D01*
X-17929Y365939D01*
X-18065Y366036D01*
X-18280Y366134D01*
X-18534Y366251D01*
X-18846Y366329D01*
X-19177Y366407D01*
X-19548Y366427D01*
X-19684D01*
X-19782Y366407D01*
X-19899Y366387D01*
X-20036Y366368D01*
X-20367Y366290D01*
X-20738Y366173D01*
X-21128Y365997D01*
X-21304Y365880D01*
X-21499Y365744D01*
X-21674Y365568D01*
X-21850Y365393D01*
Y365373D01*
X-21889Y365354D01*
X-21928Y365276D01*
X-21986Y365197D01*
X-22045Y365080D01*
X-22123Y364944D01*
X-22201Y364788D01*
X-22279Y364593D01*
X-22376Y364378D01*
X-22454Y364144D01*
X-22532Y363871D01*
X-22591Y363559D01*
X-22650Y363247D01*
X-22689Y362876D01*
X-22708Y362486D01*
X-22727Y362076D01*
Y362057D01*
Y361979D01*
Y361842D01*
X-22708Y361686D01*
Y361472D01*
X-22689Y361257D01*
X-22650Y361003D01*
X-22610Y360730D01*
X-22513Y360165D01*
X-22357Y359580D01*
X-22259Y359306D01*
X-22142Y359053D01*
X-22025Y358819D01*
X-21869Y358604D01*
X-21850Y358585D01*
X-21830Y358565D01*
X-21713Y358448D01*
X-21518Y358292D01*
X-21265Y358097D01*
X-20933Y357902D01*
X-20543Y357746D01*
X-20094Y357629D01*
X-19860Y357609D01*
X-19606Y357590D01*
X-19509D01*
X-19431Y357609D01*
X-19236Y357629D01*
X-19002Y357668D01*
X-18709Y357746D01*
X-18416Y357863D01*
X-18124Y358019D01*
X-17831Y358233D01*
X-17792Y358273D01*
X-17714Y358350D01*
X-17578Y358526D01*
X-17422Y358741D01*
X-17246Y359033D01*
X-17070Y359404D01*
X-16895Y359814D01*
X-16758Y360321D01*
X-14242Y359540D01*
Y359521D01*
X-14261Y359443D01*
X-14300Y359345D01*
X-14359Y359189D01*
X-14417Y359014D01*
X-14496Y358819D01*
X-14593Y358585D01*
X-14710Y358350D01*
X-14964Y357843D01*
X-15295Y357317D01*
X-15705Y356829D01*
X-15920Y356595D01*
X-16173Y356400D01*
X-16193Y356380D01*
X-16232Y356361D01*
X-16310Y356302D01*
X-16407Y356244D01*
X-16544Y356166D01*
X-16700Y356088D01*
X-16895Y355990D01*
X-17109Y355893D01*
X-17343Y355795D01*
X-17597Y355698D01*
X-17870Y355620D01*
X-18163Y355541D01*
X-18494Y355483D01*
X-18826Y355424D01*
X-19197Y355405D01*
X-19567Y355385D01*
X-19684D01*
X-19821Y355405D01*
X-19997D01*
X-20211Y355444D01*
X-20465Y355483D01*
X-20738Y355522D01*
X-21050Y355600D01*
X-21381Y355698D01*
X-21713Y355815D01*
X-22064Y355951D01*
X-22415Y356127D01*
X-22766Y356322D01*
X-23118Y356556D01*
X-23449Y356809D01*
X-23761Y357122D01*
X-23781Y357141D01*
X-23839Y357200D01*
X-23918Y357297D01*
X-24015Y357434D01*
X-24132Y357609D01*
X-24288Y357824D01*
X-24425Y358077D01*
X-24581Y358370D01*
X-24737Y358682D01*
X-24873Y359053D01*
X-25010Y359443D01*
X-25146Y359872D01*
X-25244Y360321D01*
X-25322Y360808D01*
X-25380Y361335D01*
X-25400Y361881D01*
Y361920D01*
Y362018D01*
X-25380Y362193D01*
Y362408D01*
X-25341Y362681D01*
X-25322Y362993D01*
X-25263Y363325D01*
X-25185Y363695D01*
X-25107Y364105D01*
X-24990Y364495D01*
X-24873Y364924D01*
X-24717Y365334D01*
X-24522Y365744D01*
X-24308Y366134D01*
X-24054Y366505D01*
X-23761Y366856D01*
X-23742Y366875D01*
X-23683Y366934D01*
X-23586Y367012D01*
X-23469Y367129D01*
X-23293Y367265D01*
X-23098Y367421D01*
X-22864Y367577D01*
X-22591Y367753D01*
X-22298Y367909D01*
X-21967Y368065D01*
X-21616Y368221D01*
X-21226Y368358D01*
X-20816Y368475D01*
X-20367Y368553D01*
X-19899Y368611D01*
X-19411Y368631D01*
X-19177D01*
X-19021Y368611D01*
D02*
G37*
G36*
X466257Y221077D02*
X466609Y221057D01*
X467018Y221038D01*
X467408Y220999D01*
X467799Y220921D01*
X468150Y220843D01*
X468169D01*
X468208Y220823D01*
X468267Y220804D01*
X468345Y220784D01*
X468540Y220687D01*
X468813Y220569D01*
X469105Y220413D01*
X469418Y220199D01*
X469749Y219945D01*
X470061Y219653D01*
X470081D01*
X470100Y219614D01*
X470198Y219497D01*
X470334Y219321D01*
X470530Y219087D01*
X470725Y218775D01*
X470920Y218424D01*
X471115Y218034D01*
X471290Y217585D01*
Y217565D01*
X471310Y217526D01*
X471329Y217468D01*
X471349Y217370D01*
X471388Y217253D01*
X471427Y217097D01*
X471466Y216941D01*
X471505Y216746D01*
X471544Y216532D01*
X471583Y216317D01*
X471661Y215790D01*
X471700Y215205D01*
X471720Y214561D01*
Y214542D01*
Y214483D01*
Y214405D01*
Y214288D01*
X471700Y214152D01*
Y213996D01*
X471661Y213625D01*
X471622Y213196D01*
X471544Y212747D01*
X471446Y212279D01*
X471310Y211830D01*
Y211811D01*
X471290Y211772D01*
X471271Y211694D01*
X471232Y211596D01*
X471173Y211479D01*
X471115Y211343D01*
X470959Y211031D01*
X470764Y210660D01*
X470530Y210289D01*
X470256Y209919D01*
X469944Y209568D01*
X469905Y209548D01*
X469827Y209450D01*
X469671Y209333D01*
X469476Y209197D01*
X469203Y209021D01*
X468891Y208846D01*
X468540Y208690D01*
X468130Y208534D01*
X468091Y208514D01*
X467974Y208495D01*
X467799Y208456D01*
X467525Y208417D01*
X467213Y208358D01*
X466823Y208319D01*
X466355Y208300D01*
X465848Y208280D01*
X461010D01*
Y221096D01*
X466101D01*
X466257Y221077D01*
D02*
G37*
G36*
X178600Y101485D02*
X171665D01*
X171680Y101470D01*
X171709Y101441D01*
X171753Y101382D01*
X171826Y101309D01*
X171899Y101207D01*
X171987Y101090D01*
X172090Y100958D01*
X172192Y100797D01*
X172309Y100636D01*
X172426Y100446D01*
X172645Y100051D01*
X172865Y99597D01*
X173055Y99100D01*
X171387D01*
Y99115D01*
X171373Y99129D01*
X171358Y99173D01*
X171343Y99232D01*
X171285Y99378D01*
X171182Y99568D01*
X171065Y99802D01*
X170905Y100066D01*
X170729Y100358D01*
X170495Y100665D01*
X170480Y100680D01*
X170466Y100709D01*
X170422Y100753D01*
X170378Y100797D01*
X170246Y100943D01*
X170056Y101134D01*
X169837Y101324D01*
X169573Y101514D01*
X169280Y101690D01*
X168959Y101821D01*
Y103328D01*
X178600D01*
Y101485D01*
D02*
G37*
G36*
X178600Y122000D02*
X178556D01*
X178498Y122015D01*
X178439Y122029D01*
X178351Y122044D01*
X178249Y122058D01*
X178015Y122117D01*
X177722Y122190D01*
X177415Y122307D01*
X177093Y122439D01*
X176771Y122614D01*
X176757D01*
X176727Y122644D01*
X176684Y122673D01*
X176610Y122717D01*
X176523Y122790D01*
X176420Y122863D01*
X176289Y122966D01*
X176157Y123068D01*
X175996Y123200D01*
X175820Y123361D01*
X175630Y123522D01*
X175425Y123712D01*
X175206Y123931D01*
X174972Y124151D01*
X174723Y124414D01*
X174460Y124692D01*
X174445Y124707D01*
X174416Y124750D01*
X174343Y124809D01*
X174270Y124897D01*
X174182Y124985D01*
X174065Y125102D01*
X173831Y125350D01*
X173567Y125614D01*
X173304Y125862D01*
X173187Y125979D01*
X173084Y126082D01*
X172982Y126170D01*
X172894Y126228D01*
X172865Y126243D01*
X172792Y126287D01*
X172689Y126345D01*
X172543Y126418D01*
X172367Y126491D01*
X172177Y126550D01*
X171973Y126594D01*
X171768Y126609D01*
X171665D01*
X171548Y126594D01*
X171417Y126565D01*
X171270Y126521D01*
X171109Y126462D01*
X170948Y126389D01*
X170817Y126272D01*
X170802Y126257D01*
X170758Y126214D01*
X170714Y126140D01*
X170641Y126038D01*
X170583Y125906D01*
X170539Y125745D01*
X170495Y125555D01*
X170480Y125350D01*
Y125321D01*
Y125263D01*
X170495Y125146D01*
X170524Y125028D01*
X170568Y124882D01*
X170627Y124721D01*
X170714Y124575D01*
X170831Y124429D01*
X170846Y124414D01*
X170905Y124370D01*
X170978Y124326D01*
X171109Y124253D01*
X171270Y124195D01*
X171460Y124121D01*
X171709Y124078D01*
X171987Y124048D01*
X171812Y122219D01*
X171797D01*
X171738Y122234D01*
X171665D01*
X171563Y122263D01*
X171431Y122278D01*
X171299Y122322D01*
X171139Y122351D01*
X170963Y122410D01*
X170612Y122541D01*
X170246Y122717D01*
X170071Y122834D01*
X169910Y122951D01*
X169763Y123097D01*
X169632Y123244D01*
X169617Y123258D01*
X169602Y123287D01*
X169573Y123331D01*
X169529Y123405D01*
X169471Y123478D01*
X169412Y123580D01*
X169354Y123697D01*
X169295Y123843D01*
X169237Y123990D01*
X169178Y124151D01*
X169061Y124516D01*
X168988Y124926D01*
X168959Y125160D01*
Y125394D01*
Y125409D01*
Y125453D01*
Y125526D01*
X168973Y125628D01*
X168988Y125745D01*
X169003Y125892D01*
X169017Y126038D01*
X169061Y126214D01*
X169149Y126565D01*
X169280Y126945D01*
X169368Y127121D01*
X169471Y127311D01*
X169602Y127472D01*
X169734Y127633D01*
X169749Y127647D01*
X169763Y127662D01*
X169807Y127706D01*
X169866Y127764D01*
X169939Y127823D01*
X170041Y127896D01*
X170261Y128042D01*
X170539Y128189D01*
X170861Y128320D01*
X171226Y128423D01*
X171431Y128437D01*
X171636Y128452D01*
X171738D01*
X171870Y128437D01*
X172031Y128423D01*
X172221Y128393D01*
X172426Y128350D01*
X172660Y128291D01*
X172880Y128218D01*
X172909Y128203D01*
X172982Y128174D01*
X173099Y128116D01*
X173245Y128042D01*
X173436Y127940D01*
X173640Y127808D01*
X173860Y127647D01*
X174094Y127472D01*
X174109Y127457D01*
X174167Y127413D01*
X174270Y127325D01*
X174401Y127194D01*
X174577Y127033D01*
X174796Y126813D01*
X175045Y126565D01*
X175323Y126257D01*
X175338Y126243D01*
X175352Y126214D01*
X175396Y126170D01*
X175455Y126126D01*
X175586Y125979D01*
X175762Y125804D01*
X175937Y125614D01*
X176113Y125438D01*
X176274Y125277D01*
X176332Y125219D01*
X176391Y125160D01*
X176406Y125146D01*
X176435Y125116D01*
X176479Y125072D01*
X176552Y125028D01*
X176698Y124897D01*
X176888Y124780D01*
Y128452D01*
X178600D01*
Y122000D01*
D02*
G37*
G36*
X371987Y133379D02*
X372104Y133364D01*
X372221Y133350D01*
X372368Y133320D01*
X372529Y133276D01*
X372865Y133159D01*
X373041Y133086D01*
X373216Y132999D01*
X373406Y132896D01*
X373582Y132764D01*
X373758Y132618D01*
X373933Y132457D01*
X373948Y132443D01*
X373977Y132413D01*
X374021Y132369D01*
X374065Y132296D01*
X374138Y132208D01*
X374211Y132091D01*
X374299Y131974D01*
X374372Y131828D01*
X374460Y131667D01*
X374548Y131491D01*
X374621Y131301D01*
X374679Y131096D01*
X374738Y130877D01*
X374782Y130658D01*
X374811Y130409D01*
X374826Y130160D01*
Y130146D01*
Y130102D01*
Y130028D01*
X374811Y129941D01*
X374796Y129824D01*
X374782Y129692D01*
X374767Y129546D01*
X374738Y129399D01*
X374650Y129048D01*
X374504Y128682D01*
X374431Y128507D01*
X374328Y128317D01*
X374211Y128141D01*
X374079Y127980D01*
X374065Y127966D01*
X374050Y127951D01*
X374006Y127907D01*
X373948Y127849D01*
X373875Y127775D01*
X373772Y127702D01*
X373670Y127629D01*
X373553Y127541D01*
X373275Y127366D01*
X372938Y127205D01*
X372558Y127073D01*
X372338Y127029D01*
X372119Y127000D01*
X371899Y128785D01*
X371929D01*
X372016Y128799D01*
X372134Y128829D01*
X372295Y128873D01*
X372455Y128931D01*
X372631Y129004D01*
X372807Y129107D01*
X372953Y129239D01*
X372967Y129253D01*
X373011Y129312D01*
X373070Y129385D01*
X373128Y129502D01*
X373187Y129634D01*
X373246Y129780D01*
X373289Y129955D01*
X373304Y130146D01*
Y130175D01*
Y130248D01*
X373275Y130350D01*
X373246Y130482D01*
X373202Y130628D01*
X373128Y130789D01*
X373026Y130950D01*
X372880Y131111D01*
X372865Y131126D01*
X372792Y131170D01*
X372704Y131243D01*
X372573Y131316D01*
X372397Y131375D01*
X372192Y131448D01*
X371958Y131491D01*
X371695Y131506D01*
X371578D01*
X371446Y131491D01*
X371285Y131462D01*
X371109Y131418D01*
X370934Y131345D01*
X370744Y131257D01*
X370583Y131126D01*
X370568Y131111D01*
X370524Y131053D01*
X370451Y130979D01*
X370378Y130862D01*
X370305Y130731D01*
X370232Y130570D01*
X370188Y130394D01*
X370173Y130204D01*
Y130189D01*
Y130146D01*
Y130072D01*
X370188Y129970D01*
X370202Y129853D01*
X370232Y129707D01*
X370275Y129546D01*
X370319Y129370D01*
X368827Y129575D01*
Y129590D01*
Y129604D01*
Y129692D01*
X368812Y129838D01*
X368798Y129999D01*
X368769Y130175D01*
X368710Y130365D01*
X368622Y130555D01*
X368520Y130716D01*
X368505Y130731D01*
X368461Y130775D01*
X368374Y130848D01*
X368271Y130921D01*
X368139Y130994D01*
X367979Y131067D01*
X367803Y131111D01*
X367598Y131126D01*
X367510D01*
X367423Y131111D01*
X367320Y131096D01*
X367203Y131053D01*
X367071Y131009D01*
X366940Y130936D01*
X366823Y130833D01*
X366808Y130819D01*
X366779Y130775D01*
X366735Y130716D01*
X366676Y130628D01*
X366618Y130511D01*
X366574Y130380D01*
X366545Y130219D01*
X366530Y130043D01*
Y130028D01*
Y129970D01*
X366545Y129882D01*
X366574Y129765D01*
X366618Y129634D01*
X366676Y129502D01*
X366750Y129355D01*
X366867Y129224D01*
X366881Y129209D01*
X366925Y129165D01*
X366998Y129121D01*
X367101Y129048D01*
X367247Y128975D01*
X367408Y128917D01*
X367598Y128858D01*
X367818Y128829D01*
X367540Y127132D01*
X367525D01*
X367496Y127146D01*
X367452D01*
X367393Y127161D01*
X367232Y127205D01*
X367028Y127263D01*
X366808Y127337D01*
X366574Y127424D01*
X366340Y127541D01*
X366135Y127658D01*
X366106Y127673D01*
X366047Y127732D01*
X365960Y127805D01*
X365828Y127922D01*
X365696Y128068D01*
X365564Y128229D01*
X365433Y128434D01*
X365316Y128653D01*
Y128668D01*
X365301Y128682D01*
X365272Y128770D01*
X365213Y128902D01*
X365155Y129078D01*
X365111Y129297D01*
X365052Y129531D01*
X365023Y129809D01*
X365009Y130102D01*
Y130116D01*
Y130160D01*
Y130233D01*
X365023Y130321D01*
X365038Y130438D01*
X365052Y130570D01*
X365082Y130731D01*
X365111Y130892D01*
X365228Y131228D01*
X365286Y131418D01*
X365374Y131594D01*
X365477Y131770D01*
X365594Y131960D01*
X365726Y132121D01*
X365886Y132282D01*
X365901Y132296D01*
X365916Y132311D01*
X365960Y132340D01*
X366003Y132384D01*
X366150Y132501D01*
X366355Y132633D01*
X366589Y132750D01*
X366852Y132867D01*
X367159Y132940D01*
X367320Y132969D01*
X367540D01*
X367598Y132955D01*
X367686D01*
X367803Y132925D01*
X367920Y132896D01*
X368052Y132852D01*
X368198Y132794D01*
X368359Y132720D01*
X368520Y132633D01*
X368695Y132516D01*
X368856Y132384D01*
X369032Y132223D01*
X369193Y132033D01*
X369354Y131828D01*
X369500Y131579D01*
Y131594D01*
X369515Y131623D01*
Y131652D01*
X369529Y131711D01*
X369588Y131872D01*
X369661Y132048D01*
X369763Y132267D01*
X369910Y132486D01*
X370085Y132691D01*
X370290Y132896D01*
X370319Y132911D01*
X370393Y132969D01*
X370524Y133057D01*
X370700Y133145D01*
X370919Y133233D01*
X371183Y133320D01*
X371461Y133379D01*
X371782Y133393D01*
X371899D01*
X371987Y133379D01*
D02*
G37*
G36*
X374650Y180185D02*
X367715D01*
X367730Y180170D01*
X367759Y180141D01*
X367803Y180082D01*
X367876Y180009D01*
X367949Y179907D01*
X368037Y179790D01*
X368139Y179658D01*
X368242Y179497D01*
X368359Y179336D01*
X368476Y179146D01*
X368695Y178751D01*
X368915Y178297D01*
X369105Y177800D01*
X367437D01*
Y177815D01*
X367423Y177829D01*
X367408Y177873D01*
X367393Y177932D01*
X367335Y178078D01*
X367232Y178268D01*
X367115Y178502D01*
X366954Y178766D01*
X366779Y179058D01*
X366545Y179366D01*
X366530Y179380D01*
X366516Y179409D01*
X366472Y179453D01*
X366428Y179497D01*
X366296Y179643D01*
X366106Y179834D01*
X365886Y180024D01*
X365623Y180214D01*
X365330Y180390D01*
X365009Y180521D01*
Y182028D01*
X374650D01*
Y180185D01*
D02*
G37*
G36*
Y152400D02*
X374606D01*
X374548Y152415D01*
X374489Y152429D01*
X374401Y152444D01*
X374299Y152458D01*
X374065Y152517D01*
X373772Y152590D01*
X373465Y152707D01*
X373143Y152839D01*
X372821Y153014D01*
X372807D01*
X372777Y153044D01*
X372733Y153073D01*
X372660Y153117D01*
X372573Y153190D01*
X372470Y153263D01*
X372338Y153366D01*
X372207Y153468D01*
X372046Y153600D01*
X371870Y153761D01*
X371680Y153922D01*
X371475Y154112D01*
X371256Y154331D01*
X371022Y154551D01*
X370773Y154814D01*
X370510Y155092D01*
X370495Y155107D01*
X370466Y155150D01*
X370393Y155209D01*
X370319Y155297D01*
X370232Y155385D01*
X370115Y155502D01*
X369880Y155750D01*
X369617Y156014D01*
X369354Y156262D01*
X369237Y156379D01*
X369134Y156482D01*
X369032Y156570D01*
X368944Y156628D01*
X368915Y156643D01*
X368842Y156687D01*
X368739Y156745D01*
X368593Y156818D01*
X368417Y156891D01*
X368227Y156950D01*
X368022Y156994D01*
X367818Y157009D01*
X367715D01*
X367598Y156994D01*
X367467Y156965D01*
X367320Y156921D01*
X367159Y156862D01*
X366998Y156789D01*
X366867Y156672D01*
X366852Y156657D01*
X366808Y156614D01*
X366764Y156540D01*
X366691Y156438D01*
X366632Y156306D01*
X366589Y156145D01*
X366545Y155955D01*
X366530Y155750D01*
Y155721D01*
Y155663D01*
X366545Y155546D01*
X366574Y155428D01*
X366618Y155282D01*
X366676Y155121D01*
X366764Y154975D01*
X366881Y154829D01*
X366896Y154814D01*
X366954Y154770D01*
X367028Y154726D01*
X367159Y154653D01*
X367320Y154595D01*
X367510Y154521D01*
X367759Y154478D01*
X368037Y154448D01*
X367862Y152619D01*
X367847D01*
X367788Y152634D01*
X367715D01*
X367613Y152663D01*
X367481Y152678D01*
X367349Y152722D01*
X367188Y152751D01*
X367013Y152810D01*
X366662Y152941D01*
X366296Y153117D01*
X366120Y153234D01*
X365960Y153351D01*
X365813Y153497D01*
X365682Y153644D01*
X365667Y153658D01*
X365652Y153687D01*
X365623Y153731D01*
X365579Y153805D01*
X365521Y153878D01*
X365462Y153980D01*
X365404Y154097D01*
X365345Y154243D01*
X365286Y154390D01*
X365228Y154551D01*
X365111Y154916D01*
X365038Y155326D01*
X365009Y155560D01*
Y155794D01*
Y155809D01*
Y155853D01*
Y155926D01*
X365023Y156028D01*
X365038Y156145D01*
X365052Y156292D01*
X365067Y156438D01*
X365111Y156614D01*
X365199Y156965D01*
X365330Y157345D01*
X365418Y157521D01*
X365521Y157711D01*
X365652Y157872D01*
X365784Y158033D01*
X365799Y158047D01*
X365813Y158062D01*
X365857Y158106D01*
X365916Y158164D01*
X365989Y158223D01*
X366091Y158296D01*
X366311Y158442D01*
X366589Y158589D01*
X366911Y158720D01*
X367276Y158823D01*
X367481Y158837D01*
X367686Y158852D01*
X367788D01*
X367920Y158837D01*
X368081Y158823D01*
X368271Y158793D01*
X368476Y158750D01*
X368710Y158691D01*
X368929Y158618D01*
X368959Y158603D01*
X369032Y158574D01*
X369149Y158516D01*
X369295Y158442D01*
X369486Y158340D01*
X369690Y158208D01*
X369910Y158047D01*
X370144Y157872D01*
X370159Y157857D01*
X370217Y157813D01*
X370319Y157725D01*
X370451Y157594D01*
X370627Y157433D01*
X370846Y157213D01*
X371095Y156965D01*
X371373Y156657D01*
X371387Y156643D01*
X371402Y156614D01*
X371446Y156570D01*
X371505Y156526D01*
X371636Y156379D01*
X371812Y156204D01*
X371987Y156014D01*
X372163Y155838D01*
X372324Y155677D01*
X372382Y155619D01*
X372441Y155560D01*
X372455Y155546D01*
X372485Y155516D01*
X372529Y155472D01*
X372602Y155428D01*
X372748Y155297D01*
X372938Y155180D01*
Y158852D01*
X374650D01*
Y152400D01*
D02*
G37*
G36*
X298417Y136869D02*
X298515Y136830D01*
X298671Y136771D01*
X298846Y136713D01*
X299041Y136635D01*
X299275Y136537D01*
X299510Y136420D01*
X300017Y136166D01*
X300543Y135835D01*
X301031Y135425D01*
X301265Y135211D01*
X301460Y134957D01*
X301480Y134937D01*
X301499Y134898D01*
X301558Y134820D01*
X301616Y134723D01*
X301694Y134586D01*
X301772Y134430D01*
X301870Y134235D01*
X301967Y134021D01*
X302065Y133786D01*
X302162Y133533D01*
X302241Y133260D01*
X302318Y132967D01*
X302377Y132635D01*
X302436Y132304D01*
X302455Y131933D01*
X302475Y131563D01*
Y131543D01*
Y131446D01*
X302455Y131309D01*
Y131133D01*
X302416Y130919D01*
X302377Y130665D01*
X302338Y130392D01*
X302260Y130080D01*
X302162Y129748D01*
X302045Y129417D01*
X301909Y129066D01*
X301733Y128715D01*
X301538Y128364D01*
X301304Y128012D01*
X301051Y127681D01*
X300738Y127369D01*
X300719Y127349D01*
X300660Y127291D01*
X300563Y127212D01*
X300426Y127115D01*
X300251Y126998D01*
X300036Y126842D01*
X299783Y126705D01*
X299490Y126549D01*
X299178Y126393D01*
X298807Y126257D01*
X298417Y126120D01*
X297988Y125984D01*
X297539Y125886D01*
X297052Y125808D01*
X296525Y125750D01*
X295979Y125730D01*
X295842D01*
X295667Y125750D01*
X295452D01*
X295179Y125788D01*
X294867Y125808D01*
X294535Y125867D01*
X294165Y125945D01*
X293755Y126023D01*
X293365Y126140D01*
X292936Y126257D01*
X292526Y126413D01*
X292116Y126608D01*
X291726Y126822D01*
X291355Y127076D01*
X291004Y127369D01*
X290985Y127388D01*
X290926Y127447D01*
X290848Y127544D01*
X290731Y127661D01*
X290595Y127837D01*
X290439Y128032D01*
X290283Y128266D01*
X290107Y128539D01*
X289951Y128832D01*
X289795Y129163D01*
X289639Y129514D01*
X289502Y129904D01*
X289385Y130314D01*
X289307Y130763D01*
X289249Y131231D01*
X289229Y131719D01*
Y131738D01*
Y131816D01*
Y131953D01*
X289249Y132109D01*
X289268Y132304D01*
X289307Y132538D01*
X289346Y132792D01*
X289405Y133065D01*
X289483Y133377D01*
X289580Y133669D01*
X289678Y134001D01*
X289814Y134313D01*
X289990Y134625D01*
X290166Y134937D01*
X290380Y135230D01*
X290634Y135523D01*
Y135542D01*
X290673Y135562D01*
X290790Y135659D01*
X290965Y135815D01*
X291238Y136010D01*
X291570Y136225D01*
X291960Y136459D01*
X292428Y136673D01*
X292975Y136849D01*
X293579Y134294D01*
X293560D01*
X293540Y134274D01*
X293423Y134255D01*
X293248Y134177D01*
X293014Y134079D01*
X292760Y133962D01*
X292506Y133786D01*
X292253Y133591D01*
X292019Y133338D01*
X291999Y133299D01*
X291921Y133201D01*
X291824Y133065D01*
X291726Y132850D01*
X291609Y132597D01*
X291531Y132284D01*
X291453Y131953D01*
X291434Y131582D01*
Y131563D01*
Y131524D01*
Y131446D01*
X291453Y131348D01*
X291472Y131231D01*
X291492Y131095D01*
X291570Y130763D01*
X291687Y130392D01*
X291863Y130002D01*
X291980Y129826D01*
X292116Y129631D01*
X292292Y129456D01*
X292467Y129280D01*
X292487D01*
X292506Y129241D01*
X292584Y129202D01*
X292663Y129144D01*
X292780Y129085D01*
X292916Y129007D01*
X293072Y128929D01*
X293267Y128851D01*
X293482Y128754D01*
X293716Y128676D01*
X293989Y128598D01*
X294301Y128539D01*
X294613Y128481D01*
X294984Y128441D01*
X295374Y128422D01*
X295784Y128403D01*
X296018D01*
X296174Y128422D01*
X296388D01*
X296603Y128441D01*
X296856Y128481D01*
X297130Y128519D01*
X297695Y128617D01*
X298281Y128773D01*
X298554Y128871D01*
X298807Y128988D01*
X299041Y129105D01*
X299256Y129261D01*
X299275Y129280D01*
X299295Y129300D01*
X299412Y129417D01*
X299568Y129612D01*
X299763Y129866D01*
X299958Y130197D01*
X300114Y130587D01*
X300231Y131036D01*
X300251Y131270D01*
X300270Y131524D01*
Y131543D01*
Y131563D01*
Y131621D01*
X300251Y131699D01*
X300231Y131894D01*
X300192Y132128D01*
X300114Y132421D01*
X299997Y132714D01*
X299841Y133006D01*
X299627Y133299D01*
X299587Y133338D01*
X299510Y133416D01*
X299334Y133552D01*
X299119Y133708D01*
X298827Y133884D01*
X298456Y134060D01*
X298046Y134235D01*
X297539Y134372D01*
X298319Y136888D01*
X298339D01*
X298417Y136869D01*
D02*
G37*
G36*
X302260Y142409D02*
X293014D01*
X293033Y142389D01*
X293072Y142350D01*
X293131Y142272D01*
X293228Y142175D01*
X293326Y142038D01*
X293443Y141882D01*
X293579Y141706D01*
X293716Y141492D01*
X293872Y141277D01*
X294028Y141024D01*
X294321Y140497D01*
X294613Y139892D01*
X294867Y139229D01*
X292643D01*
Y139249D01*
X292623Y139268D01*
X292604Y139326D01*
X292584Y139404D01*
X292506Y139600D01*
X292370Y139853D01*
X292214Y140165D01*
X291999Y140517D01*
X291765Y140907D01*
X291453Y141316D01*
X291434Y141336D01*
X291414Y141375D01*
X291355Y141433D01*
X291297Y141492D01*
X291121Y141687D01*
X290868Y141940D01*
X290575Y142194D01*
X290224Y142448D01*
X289834Y142682D01*
X289405Y142857D01*
Y144867D01*
X302260D01*
Y142409D01*
D02*
G37*
G36*
X210245Y477772D02*
X210364Y477757D01*
X210512Y477743D01*
X210661Y477728D01*
X210839Y477683D01*
X211196Y477594D01*
X211582Y477460D01*
X211761Y477371D01*
X211954Y477267D01*
X212117Y477133D01*
X212281Y477000D01*
X212295Y476985D01*
X212310Y476970D01*
X212355Y476925D01*
X212414Y476866D01*
X212474Y476791D01*
X212548Y476688D01*
X212697Y476465D01*
X212845Y476182D01*
X212979Y475855D01*
X213083Y475484D01*
X213098Y475276D01*
X213113Y475068D01*
Y475038D01*
Y474964D01*
X213098Y474830D01*
X213083Y474667D01*
X213053Y474473D01*
X213009Y474266D01*
X212949Y474028D01*
X212875Y473805D01*
X212860Y473775D01*
X212830Y473701D01*
X212771Y473582D01*
X212697Y473433D01*
X212593Y473240D01*
X212459Y473032D01*
X212295Y472809D01*
X212117Y472572D01*
X212102Y472557D01*
X212058Y472497D01*
X211969Y472393D01*
X211835Y472259D01*
X211671Y472081D01*
X211448Y471858D01*
X211196Y471606D01*
X210884Y471323D01*
X210869Y471309D01*
X210839Y471294D01*
X210795Y471249D01*
X210750Y471190D01*
X210602Y471056D01*
X210423Y470878D01*
X210230Y470699D01*
X210052Y470521D01*
X209888Y470358D01*
X209829Y470298D01*
X209769Y470239D01*
X209755Y470224D01*
X209725Y470194D01*
X209680Y470150D01*
X209636Y470075D01*
X209502Y469927D01*
X209383Y469734D01*
X213113D01*
Y467995D01*
X206560D01*
Y468010D01*
Y468040D01*
X206575Y468099D01*
X206590Y468158D01*
X206604Y468248D01*
X206619Y468352D01*
X206679Y468589D01*
X206753Y468886D01*
X206872Y469199D01*
X207006Y469525D01*
X207184Y469852D01*
Y469867D01*
X207214Y469897D01*
X207243Y469941D01*
X207288Y470016D01*
X207362Y470105D01*
X207437Y470209D01*
X207541Y470343D01*
X207645Y470476D01*
X207778Y470640D01*
X207942Y470818D01*
X208105Y471011D01*
X208298Y471219D01*
X208521Y471442D01*
X208744Y471680D01*
X209012Y471933D01*
X209294Y472200D01*
X209309Y472215D01*
X209353Y472245D01*
X209413Y472319D01*
X209502Y472393D01*
X209591Y472482D01*
X209710Y472601D01*
X209963Y472839D01*
X210230Y473106D01*
X210483Y473374D01*
X210602Y473493D01*
X210706Y473597D01*
X210795Y473701D01*
X210854Y473790D01*
X210869Y473820D01*
X210914Y473894D01*
X210973Y473998D01*
X211047Y474147D01*
X211122Y474325D01*
X211181Y474518D01*
X211226Y474726D01*
X211241Y474934D01*
Y474964D01*
Y475038D01*
X211226Y475157D01*
X211196Y475291D01*
X211151Y475439D01*
X211092Y475603D01*
X211018Y475766D01*
X210899Y475900D01*
X210884Y475915D01*
X210839Y475959D01*
X210765Y476004D01*
X210661Y476078D01*
X210527Y476138D01*
X210364Y476182D01*
X210171Y476227D01*
X209963Y476242D01*
X209874D01*
X209755Y476227D01*
X209636Y476197D01*
X209487Y476153D01*
X209324Y476093D01*
X209175Y476004D01*
X209027Y475885D01*
X209012Y475870D01*
X208967Y475811D01*
X208923Y475737D01*
X208848Y475603D01*
X208789Y475439D01*
X208715Y475246D01*
X208670Y474994D01*
X208640Y474711D01*
X206783Y474890D01*
Y474904D01*
X206798Y474964D01*
Y475038D01*
X206827Y475142D01*
X206842Y475276D01*
X206887Y475410D01*
X206917Y475573D01*
X206976Y475751D01*
X207110Y476108D01*
X207288Y476479D01*
X207407Y476658D01*
X207526Y476821D01*
X207674Y476970D01*
X207823Y477104D01*
X207838Y477118D01*
X207868Y477133D01*
X207912Y477163D01*
X207986Y477208D01*
X208061Y477267D01*
X208165Y477327D01*
X208284Y477386D01*
X208432Y477445D01*
X208581Y477505D01*
X208744Y477564D01*
X209116Y477683D01*
X209532Y477757D01*
X209769Y477787D01*
X210141D01*
X210245Y477772D01*
D02*
G37*
G36*
X175937Y153779D02*
X176054Y153764D01*
X176171Y153750D01*
X176318Y153720D01*
X176479Y153677D01*
X176815Y153559D01*
X176991Y153486D01*
X177166Y153399D01*
X177356Y153296D01*
X177532Y153164D01*
X177708Y153018D01*
X177883Y152857D01*
X177898Y152843D01*
X177927Y152813D01*
X177971Y152769D01*
X178015Y152696D01*
X178088Y152608D01*
X178161Y152491D01*
X178249Y152374D01*
X178322Y152228D01*
X178410Y152067D01*
X178498Y151891D01*
X178571Y151701D01*
X178629Y151496D01*
X178688Y151277D01*
X178732Y151058D01*
X178761Y150809D01*
X178776Y150560D01*
Y150546D01*
Y150502D01*
Y150428D01*
X178761Y150341D01*
X178746Y150224D01*
X178732Y150092D01*
X178717Y149946D01*
X178688Y149799D01*
X178600Y149448D01*
X178454Y149082D01*
X178381Y148907D01*
X178278Y148717D01*
X178161Y148541D01*
X178029Y148380D01*
X178015Y148366D01*
X178000Y148351D01*
X177956Y148307D01*
X177898Y148249D01*
X177825Y148175D01*
X177722Y148102D01*
X177620Y148029D01*
X177503Y147941D01*
X177225Y147766D01*
X176888Y147605D01*
X176508Y147473D01*
X176289Y147429D01*
X176069Y147400D01*
X175850Y149185D01*
X175879D01*
X175967Y149199D01*
X176084Y149229D01*
X176245Y149273D01*
X176406Y149331D01*
X176581Y149404D01*
X176757Y149507D01*
X176903Y149639D01*
X176918Y149653D01*
X176961Y149712D01*
X177020Y149785D01*
X177078Y149902D01*
X177137Y150034D01*
X177196Y150180D01*
X177239Y150355D01*
X177254Y150546D01*
Y150575D01*
Y150648D01*
X177225Y150750D01*
X177196Y150882D01*
X177152Y151028D01*
X177078Y151189D01*
X176976Y151350D01*
X176830Y151511D01*
X176815Y151526D01*
X176742Y151570D01*
X176654Y151643D01*
X176523Y151716D01*
X176347Y151775D01*
X176142Y151848D01*
X175908Y151891D01*
X175645Y151906D01*
X175528D01*
X175396Y151891D01*
X175235Y151862D01*
X175060Y151818D01*
X174884Y151745D01*
X174694Y151657D01*
X174533Y151526D01*
X174518Y151511D01*
X174474Y151453D01*
X174401Y151379D01*
X174328Y151262D01*
X174255Y151131D01*
X174182Y150970D01*
X174138Y150794D01*
X174123Y150604D01*
Y150589D01*
Y150546D01*
Y150472D01*
X174138Y150370D01*
X174153Y150253D01*
X174182Y150107D01*
X174226Y149946D01*
X174270Y149770D01*
X172777Y149975D01*
Y149990D01*
Y150004D01*
Y150092D01*
X172763Y150238D01*
X172748Y150399D01*
X172719Y150575D01*
X172660Y150765D01*
X172572Y150955D01*
X172470Y151116D01*
X172455Y151131D01*
X172411Y151175D01*
X172324Y151248D01*
X172221Y151321D01*
X172090Y151394D01*
X171929Y151467D01*
X171753Y151511D01*
X171548Y151526D01*
X171460D01*
X171373Y151511D01*
X171270Y151496D01*
X171153Y151453D01*
X171022Y151409D01*
X170890Y151336D01*
X170773Y151233D01*
X170758Y151219D01*
X170729Y151175D01*
X170685Y151116D01*
X170627Y151028D01*
X170568Y150911D01*
X170524Y150780D01*
X170495Y150619D01*
X170480Y150443D01*
Y150428D01*
Y150370D01*
X170495Y150282D01*
X170524Y150165D01*
X170568Y150034D01*
X170627Y149902D01*
X170700Y149755D01*
X170817Y149624D01*
X170831Y149609D01*
X170875Y149565D01*
X170948Y149521D01*
X171051Y149448D01*
X171197Y149375D01*
X171358Y149317D01*
X171548Y149258D01*
X171768Y149229D01*
X171490Y147532D01*
X171475D01*
X171446Y147546D01*
X171402D01*
X171343Y147561D01*
X171182Y147605D01*
X170978Y147663D01*
X170758Y147737D01*
X170524Y147824D01*
X170290Y147941D01*
X170085Y148058D01*
X170056Y148073D01*
X169997Y148132D01*
X169910Y148205D01*
X169778Y148322D01*
X169646Y148468D01*
X169515Y148629D01*
X169383Y148834D01*
X169266Y149053D01*
Y149068D01*
X169251Y149082D01*
X169222Y149170D01*
X169163Y149302D01*
X169105Y149478D01*
X169061Y149697D01*
X169003Y149931D01*
X168973Y150209D01*
X168959Y150502D01*
Y150516D01*
Y150560D01*
Y150633D01*
X168973Y150721D01*
X168988Y150838D01*
X169003Y150970D01*
X169032Y151131D01*
X169061Y151292D01*
X169178Y151628D01*
X169237Y151818D01*
X169324Y151994D01*
X169427Y152170D01*
X169544Y152360D01*
X169676Y152521D01*
X169837Y152682D01*
X169851Y152696D01*
X169866Y152711D01*
X169910Y152740D01*
X169953Y152784D01*
X170100Y152901D01*
X170305Y153033D01*
X170539Y153150D01*
X170802Y153267D01*
X171109Y153340D01*
X171270Y153369D01*
X171490D01*
X171548Y153355D01*
X171636D01*
X171753Y153325D01*
X171870Y153296D01*
X172002Y153252D01*
X172148Y153194D01*
X172309Y153120D01*
X172470Y153033D01*
X172645Y152916D01*
X172806Y152784D01*
X172982Y152623D01*
X173143Y152433D01*
X173304Y152228D01*
X173450Y151979D01*
Y151994D01*
X173465Y152023D01*
Y152052D01*
X173479Y152111D01*
X173538Y152272D01*
X173611Y152448D01*
X173713Y152667D01*
X173860Y152886D01*
X174035Y153091D01*
X174240Y153296D01*
X174270Y153311D01*
X174343Y153369D01*
X174474Y153457D01*
X174650Y153545D01*
X174869Y153633D01*
X175133Y153720D01*
X175411Y153779D01*
X175732Y153793D01*
X175850D01*
X175937Y153779D01*
D02*
G37*
G36*
X202043Y477743D02*
X202236D01*
X202637Y477728D01*
X203023Y477698D01*
X203202Y477683D01*
X203365Y477653D01*
X203499Y477639D01*
X203618Y477609D01*
X203633D01*
X203662Y477594D01*
X203692Y477579D01*
X203752Y477564D01*
X203915Y477505D01*
X204108Y477401D01*
X204331Y477282D01*
X204554Y477104D01*
X204792Y476895D01*
X205015Y476643D01*
Y476628D01*
X205044Y476613D01*
X205074Y476569D01*
X205104Y476509D01*
X205148Y476435D01*
X205193Y476346D01*
X205312Y476138D01*
X205416Y475855D01*
X205505Y475528D01*
X205564Y475157D01*
X205594Y474741D01*
Y474726D01*
Y474696D01*
Y474652D01*
Y474592D01*
X205579Y474429D01*
X205550Y474221D01*
X205520Y473983D01*
X205460Y473731D01*
X205371Y473478D01*
X205267Y473240D01*
X205252Y473210D01*
X205208Y473136D01*
X205133Y473032D01*
X205044Y472898D01*
X204925Y472735D01*
X204777Y472572D01*
X204613Y472423D01*
X204435Y472274D01*
X204420Y472259D01*
X204346Y472215D01*
X204242Y472155D01*
X204123Y472096D01*
X203960Y472007D01*
X203796Y471933D01*
X203603Y471873D01*
X203410Y471814D01*
X203380D01*
X203335Y471799D01*
X203276D01*
X203202Y471784D01*
X203113Y471769D01*
X203009Y471754D01*
X202890D01*
X202756Y471740D01*
X202607Y471725D01*
X202444Y471710D01*
X202251Y471695D01*
X202058D01*
X201850Y471680D01*
X200096D01*
Y467995D01*
X198120D01*
Y477757D01*
X201864D01*
X202043Y477743D01*
D02*
G37*
G36*
X140907Y187880D02*
X138449D01*
Y197126D01*
X138430Y197107D01*
X138391Y197068D01*
X138313Y197009D01*
X138215Y196912D01*
X138079Y196814D01*
X137923Y196697D01*
X137747Y196561D01*
X137533Y196424D01*
X137318Y196268D01*
X137064Y196112D01*
X136538Y195819D01*
X135933Y195527D01*
X135270Y195273D01*
Y197497D01*
X135289D01*
X135309Y197516D01*
X135367Y197536D01*
X135445Y197556D01*
X135640Y197634D01*
X135894Y197770D01*
X136206Y197926D01*
X136557Y198141D01*
X136947Y198375D01*
X137357Y198687D01*
X137376Y198706D01*
X137416Y198726D01*
X137474Y198785D01*
X137533Y198843D01*
X137728Y199019D01*
X137981Y199272D01*
X138235Y199565D01*
X138488Y199916D01*
X138722Y200306D01*
X138898Y200735D01*
X140907D01*
Y187880D01*
D02*
G37*
G36*
X414166Y94291D02*
X414361D01*
X414595Y94252D01*
X414888Y94213D01*
X415200Y94155D01*
X415531Y94096D01*
X415882Y93999D01*
X416253Y93882D01*
X416624Y93745D01*
X416994Y93569D01*
X417365Y93375D01*
X417736Y93140D01*
X418067Y92867D01*
X418399Y92555D01*
X418419Y92536D01*
X418477Y92477D01*
X418555Y92380D01*
X418653Y92243D01*
X418789Y92048D01*
X418926Y91833D01*
X419082Y91580D01*
X419238Y91287D01*
X419394Y90956D01*
X419550Y90604D01*
X419686Y90195D01*
X419823Y89766D01*
X419921Y89278D01*
X419999Y88771D01*
X420057Y88244D01*
X420077Y87659D01*
Y87639D01*
Y87581D01*
Y87503D01*
Y87386D01*
X420057Y87230D01*
Y87074D01*
X420038Y86879D01*
X420018Y86684D01*
X419959Y86215D01*
X419882Y85728D01*
X419765Y85240D01*
X419608Y84752D01*
Y84733D01*
X419589Y84713D01*
X419569Y84655D01*
X419550Y84596D01*
X419452Y84401D01*
X419335Y84148D01*
X419179Y83875D01*
X418984Y83543D01*
X418770Y83211D01*
X418497Y82880D01*
X418516D01*
X418535Y82841D01*
X418594Y82821D01*
X418653Y82762D01*
X418848Y82646D01*
X419101Y82489D01*
X419413Y82314D01*
X419765Y82138D01*
X420155Y81963D01*
X420564Y81807D01*
X419608Y79973D01*
X419589D01*
X419511Y80012D01*
X419394Y80051D01*
X419238Y80110D01*
X419062Y80188D01*
X418867Y80266D01*
X418457Y80461D01*
X418419Y80480D01*
X418340Y80539D01*
X418204Y80617D01*
X418106Y80695D01*
X417989Y80773D01*
X417853Y80851D01*
X417677Y80968D01*
X417502Y81085D01*
X417267Y81241D01*
X417034Y81397D01*
X416741Y81592D01*
X416721D01*
X416682Y81573D01*
X416624Y81534D01*
X416526Y81514D01*
X416409Y81475D01*
X416273Y81417D01*
X416097Y81377D01*
X415922Y81319D01*
X415512Y81222D01*
X415044Y81124D01*
X414517Y81065D01*
X413951Y81046D01*
X413815D01*
X413678Y81065D01*
X413464D01*
X413210Y81104D01*
X412937Y81143D01*
X412605Y81182D01*
X412274Y81260D01*
X411903Y81358D01*
X411532Y81475D01*
X411142Y81612D01*
X410752Y81787D01*
X410382Y81982D01*
X410011Y82216D01*
X409660Y82470D01*
X409328Y82782D01*
X409309Y82802D01*
X409250Y82860D01*
X409172Y82958D01*
X409075Y83094D01*
X408938Y83289D01*
X408801Y83504D01*
X408645Y83757D01*
X408509Y84050D01*
X408353Y84382D01*
X408197Y84733D01*
X408060Y85142D01*
X407924Y85572D01*
X407826Y86059D01*
X407748Y86566D01*
X407690Y87113D01*
X407670Y87678D01*
Y87717D01*
Y87815D01*
X407690Y87971D01*
Y88205D01*
X407729Y88459D01*
X407767Y88771D01*
X407807Y89102D01*
X407885Y89473D01*
X407963Y89844D01*
X408080Y90253D01*
X408216Y90663D01*
X408372Y91053D01*
X408567Y91463D01*
X408782Y91853D01*
X409035Y92224D01*
X409328Y92555D01*
X409348Y92575D01*
X409406Y92633D01*
X409504Y92711D01*
X409640Y92828D01*
X409796Y92965D01*
X410011Y93121D01*
X410245Y93277D01*
X410538Y93433D01*
X410830Y93589D01*
X411181Y93765D01*
X411552Y93901D01*
X411962Y94038D01*
X412391Y94155D01*
X412859Y94233D01*
X413366Y94291D01*
X413893Y94311D01*
X414010D01*
X414166Y94291D01*
D02*
G37*
G36*
X62143Y20320D02*
X59685D01*
Y29566D01*
X59666Y29547D01*
X59627Y29508D01*
X59549Y29449D01*
X59451Y29352D01*
X59314Y29254D01*
X59158Y29137D01*
X58983Y29001D01*
X58768Y28864D01*
X58554Y28708D01*
X58300Y28552D01*
X57773Y28259D01*
X57169Y27967D01*
X56505Y27713D01*
Y29937D01*
X56525D01*
X56544Y29957D01*
X56603Y29976D01*
X56681Y29996D01*
X56876Y30074D01*
X57130Y30210D01*
X57442Y30366D01*
X57793Y30581D01*
X58183Y30815D01*
X58593Y31127D01*
X58612Y31147D01*
X58651Y31166D01*
X58710Y31225D01*
X58768Y31283D01*
X58963Y31459D01*
X59217Y31712D01*
X59471Y32005D01*
X59724Y32356D01*
X59958Y32746D01*
X60134Y33175D01*
X62143D01*
Y20320D01*
D02*
G37*
G36*
X127213Y200891D02*
X127408D01*
X127642Y200852D01*
X127935Y200813D01*
X128247Y200755D01*
X128579Y200696D01*
X128930Y200599D01*
X129300Y200482D01*
X129671Y200345D01*
X130042Y200170D01*
X130412Y199974D01*
X130783Y199740D01*
X131115Y199467D01*
X131446Y199155D01*
X131466Y199136D01*
X131524Y199077D01*
X131602Y198980D01*
X131700Y198843D01*
X131837Y198648D01*
X131973Y198433D01*
X132129Y198180D01*
X132285Y197887D01*
X132441Y197556D01*
X132597Y197204D01*
X132734Y196795D01*
X132870Y196366D01*
X132968Y195878D01*
X133046Y195371D01*
X133104Y194844D01*
X133124Y194259D01*
Y194239D01*
Y194181D01*
Y194103D01*
Y193986D01*
X133104Y193830D01*
Y193674D01*
X133085Y193479D01*
X133065Y193284D01*
X133007Y192815D01*
X132929Y192328D01*
X132812Y191840D01*
X132656Y191352D01*
Y191333D01*
X132636Y191313D01*
X132617Y191255D01*
X132597Y191196D01*
X132500Y191001D01*
X132383Y190748D01*
X132227Y190474D01*
X132031Y190143D01*
X131817Y189811D01*
X131544Y189480D01*
X131563D01*
X131583Y189441D01*
X131641Y189421D01*
X131700Y189363D01*
X131895Y189245D01*
X132149Y189089D01*
X132461Y188914D01*
X132812Y188738D01*
X133202Y188563D01*
X133612Y188407D01*
X132656Y186573D01*
X132636D01*
X132558Y186612D01*
X132441Y186651D01*
X132285Y186710D01*
X132110Y186788D01*
X131915Y186866D01*
X131505Y187061D01*
X131466Y187080D01*
X131388Y187139D01*
X131251Y187217D01*
X131154Y187295D01*
X131037Y187373D01*
X130900Y187451D01*
X130725Y187568D01*
X130549Y187685D01*
X130315Y187841D01*
X130081Y187997D01*
X129788Y188192D01*
X129769D01*
X129730Y188173D01*
X129671Y188134D01*
X129574Y188114D01*
X129457Y188075D01*
X129320Y188016D01*
X129144Y187978D01*
X128969Y187919D01*
X128559Y187822D01*
X128091Y187724D01*
X127564Y187665D01*
X126999Y187646D01*
X126862D01*
X126726Y187665D01*
X126511D01*
X126257Y187704D01*
X125984Y187743D01*
X125653Y187782D01*
X125321Y187861D01*
X124950Y187958D01*
X124580Y188075D01*
X124190Y188212D01*
X123799Y188387D01*
X123429Y188582D01*
X123058Y188816D01*
X122707Y189070D01*
X122375Y189382D01*
X122356Y189402D01*
X122297Y189460D01*
X122219Y189558D01*
X122122Y189694D01*
X121985Y189889D01*
X121849Y190104D01*
X121693Y190357D01*
X121556Y190650D01*
X121400Y190982D01*
X121244Y191333D01*
X121108Y191742D01*
X120971Y192172D01*
X120873Y192659D01*
X120795Y193166D01*
X120737Y193713D01*
X120717Y194278D01*
Y194317D01*
Y194415D01*
X120737Y194571D01*
Y194805D01*
X120776Y195059D01*
X120815Y195371D01*
X120854Y195702D01*
X120932Y196073D01*
X121010Y196444D01*
X121127Y196853D01*
X121264Y197263D01*
X121420Y197653D01*
X121615Y198063D01*
X121829Y198453D01*
X122083Y198824D01*
X122375Y199155D01*
X122395Y199175D01*
X122453Y199233D01*
X122551Y199311D01*
X122688Y199428D01*
X122844Y199565D01*
X123058Y199721D01*
X123292Y199877D01*
X123585Y200033D01*
X123877Y200189D01*
X124229Y200365D01*
X124599Y200501D01*
X125009Y200638D01*
X125438Y200755D01*
X125906Y200833D01*
X126413Y200891D01*
X126940Y200911D01*
X127057D01*
X127213Y200891D01*
D02*
G37*
G36*
X426085Y94116D02*
X426241Y94096D01*
X426436Y94077D01*
X426631Y94057D01*
X426865Y93999D01*
X427333Y93882D01*
X427840Y93706D01*
X428074Y93589D01*
X428328Y93453D01*
X428543Y93277D01*
X428757Y93101D01*
X428777Y93082D01*
X428796Y93062D01*
X428855Y93004D01*
X428933Y92926D01*
X429011Y92828D01*
X429108Y92692D01*
X429304Y92399D01*
X429499Y92029D01*
X429674Y91599D01*
X429811Y91112D01*
X429830Y90838D01*
X429850Y90565D01*
Y90526D01*
Y90429D01*
X429830Y90253D01*
X429811Y90039D01*
X429772Y89785D01*
X429713Y89512D01*
X429635Y89200D01*
X429538Y88907D01*
X429518Y88868D01*
X429479Y88771D01*
X429401Y88615D01*
X429304Y88420D01*
X429167Y88166D01*
X428991Y87893D01*
X428777Y87600D01*
X428543Y87288D01*
X428523Y87269D01*
X428465Y87191D01*
X428348Y87054D01*
X428172Y86879D01*
X427957Y86644D01*
X427665Y86352D01*
X427333Y86020D01*
X426924Y85650D01*
X426904Y85630D01*
X426865Y85611D01*
X426807Y85552D01*
X426748Y85474D01*
X426553Y85299D01*
X426319Y85064D01*
X426065Y84830D01*
X425831Y84596D01*
X425617Y84382D01*
X425539Y84304D01*
X425461Y84226D01*
X425441Y84206D01*
X425402Y84167D01*
X425344Y84108D01*
X425285Y84011D01*
X425109Y83816D01*
X424953Y83562D01*
X429850D01*
Y81280D01*
X421247D01*
Y81299D01*
Y81339D01*
X421267Y81417D01*
X421286Y81495D01*
X421306Y81612D01*
X421325Y81748D01*
X421403Y82060D01*
X421501Y82450D01*
X421657Y82860D01*
X421832Y83289D01*
X422066Y83718D01*
Y83738D01*
X422105Y83777D01*
X422144Y83835D01*
X422203Y83933D01*
X422300Y84050D01*
X422398Y84187D01*
X422534Y84362D01*
X422671Y84538D01*
X422847Y84752D01*
X423061Y84986D01*
X423276Y85240D01*
X423529Y85513D01*
X423822Y85806D01*
X424115Y86118D01*
X424466Y86449D01*
X424836Y86800D01*
X424856Y86820D01*
X424914Y86859D01*
X424992Y86957D01*
X425109Y87054D01*
X425227Y87171D01*
X425382Y87327D01*
X425714Y87639D01*
X426065Y87991D01*
X426397Y88342D01*
X426553Y88498D01*
X426689Y88634D01*
X426807Y88771D01*
X426885Y88888D01*
X426904Y88927D01*
X426963Y89024D01*
X427041Y89161D01*
X427138Y89356D01*
X427236Y89590D01*
X427314Y89844D01*
X427372Y90117D01*
X427392Y90390D01*
Y90429D01*
Y90526D01*
X427372Y90682D01*
X427333Y90858D01*
X427275Y91053D01*
X427197Y91268D01*
X427099Y91482D01*
X426943Y91658D01*
X426924Y91677D01*
X426865Y91736D01*
X426768Y91794D01*
X426631Y91892D01*
X426455Y91970D01*
X426241Y92029D01*
X425987Y92087D01*
X425714Y92107D01*
X425597D01*
X425441Y92087D01*
X425285Y92048D01*
X425090Y91989D01*
X424875Y91911D01*
X424680Y91794D01*
X424485Y91638D01*
X424466Y91619D01*
X424407Y91541D01*
X424349Y91443D01*
X424251Y91268D01*
X424173Y91053D01*
X424076Y90800D01*
X424017Y90468D01*
X423978Y90097D01*
X421540Y90331D01*
Y90351D01*
X421559Y90429D01*
Y90526D01*
X421598Y90663D01*
X421618Y90838D01*
X421676Y91014D01*
X421715Y91229D01*
X421793Y91463D01*
X421969Y91931D01*
X422203Y92419D01*
X422359Y92653D01*
X422515Y92867D01*
X422710Y93062D01*
X422905Y93238D01*
X422925Y93257D01*
X422964Y93277D01*
X423022Y93316D01*
X423120Y93375D01*
X423217Y93453D01*
X423354Y93531D01*
X423510Y93609D01*
X423705Y93687D01*
X423900Y93765D01*
X424115Y93843D01*
X424602Y93999D01*
X425149Y94096D01*
X425461Y94135D01*
X425948D01*
X426085Y94116D01*
D02*
G37*
G36*
X251078Y182880D02*
X248620D01*
Y192126D01*
X248601Y192107D01*
X248562Y192068D01*
X248484Y192009D01*
X248386Y191912D01*
X248250Y191814D01*
X248094Y191697D01*
X247918Y191561D01*
X247704Y191424D01*
X247489Y191268D01*
X247236Y191112D01*
X246709Y190819D01*
X246104Y190527D01*
X245441Y190273D01*
Y192497D01*
X245460D01*
X245480Y192517D01*
X245538Y192536D01*
X245616Y192556D01*
X245811Y192634D01*
X246065Y192770D01*
X246377Y192926D01*
X246728Y193141D01*
X247118Y193375D01*
X247528Y193687D01*
X247548Y193706D01*
X247587Y193726D01*
X247645Y193785D01*
X247704Y193843D01*
X247899Y194019D01*
X248152Y194272D01*
X248406Y194565D01*
X248659Y194916D01*
X248894Y195306D01*
X249069Y195735D01*
X251078D01*
Y182880D01*
D02*
G37*
G36*
X242593Y188947D02*
Y188927D01*
Y188849D01*
Y188732D01*
Y188576D01*
Y188381D01*
X242573Y188167D01*
Y187932D01*
Y187679D01*
X242534Y187133D01*
X242495Y186606D01*
X242476Y186352D01*
X242456Y186099D01*
X242417Y185884D01*
X242378Y185689D01*
Y185669D01*
Y185650D01*
X242339Y185533D01*
X242281Y185357D01*
X242203Y185123D01*
X242086Y184870D01*
X241968Y184597D01*
X241793Y184324D01*
X241598Y184070D01*
X241578Y184050D01*
X241500Y183953D01*
X241364Y183836D01*
X241208Y183699D01*
X240974Y183524D01*
X240720Y183348D01*
X240427Y183173D01*
X240096Y183017D01*
X240076D01*
X240057Y182997D01*
X239998Y182978D01*
X239920Y182958D01*
X239842Y182938D01*
X239725Y182899D01*
X239433Y182841D01*
X239081Y182763D01*
X238672Y182704D01*
X238184Y182665D01*
X237638Y182646D01*
X237345D01*
X237189Y182665D01*
X237014D01*
X236604Y182704D01*
X236155Y182743D01*
X235707Y182822D01*
X235258Y182919D01*
X235063Y182978D01*
X234868Y183056D01*
X234848D01*
X234829Y183075D01*
X234712Y183134D01*
X234536Y183231D01*
X234322Y183348D01*
X234088Y183524D01*
X233834Y183699D01*
X233600Y183933D01*
X233366Y184167D01*
X233346Y184207D01*
X233288Y184284D01*
X233190Y184421D01*
X233073Y184597D01*
X232956Y184811D01*
X232839Y185065D01*
X232722Y185318D01*
X232644Y185592D01*
Y185611D01*
Y185650D01*
X232625Y185709D01*
X232605Y185806D01*
X232586Y185904D01*
X232566Y186060D01*
X232547Y186216D01*
X232527Y186411D01*
X232507Y186625D01*
X232488Y186859D01*
X232468Y187133D01*
X232449Y187425D01*
X232430Y187737D01*
Y188088D01*
X232410Y188459D01*
Y188849D01*
Y195696D01*
X235005D01*
Y188732D01*
Y188713D01*
Y188654D01*
Y188576D01*
Y188459D01*
Y188342D01*
Y188186D01*
X235024Y187835D01*
Y187484D01*
X235044Y187133D01*
X235063Y186821D01*
Y186684D01*
X235082Y186586D01*
Y186547D01*
X235121Y186450D01*
X235180Y186313D01*
X235238Y186138D01*
X235356Y185923D01*
X235492Y185709D01*
X235648Y185513D01*
X235863Y185318D01*
X235902Y185299D01*
X235980Y185240D01*
X236116Y185162D01*
X236311Y185084D01*
X236546Y185006D01*
X236838Y184928D01*
X237189Y184870D01*
X237560Y184850D01*
X237736D01*
X237931Y184870D01*
X238184Y184909D01*
X238438Y184967D01*
X238711Y185045D01*
X238964Y185143D01*
X239198Y185299D01*
X239218Y185318D01*
X239296Y185377D01*
X239394Y185474D01*
X239491Y185611D01*
X239608Y185767D01*
X239725Y185943D01*
X239823Y186157D01*
X239881Y186391D01*
Y186430D01*
X239901Y186528D01*
X239920Y186684D01*
X239940Y186918D01*
X239959Y187211D01*
X239979Y187601D01*
Y187815D01*
X239998Y188049D01*
Y188303D01*
Y188576D01*
Y195696D01*
X242593D01*
Y188947D01*
D02*
G37*
G36*
X436441Y492857D02*
X436850D01*
X437065Y492837D01*
X437553Y492798D01*
X438040Y492720D01*
X438508Y492642D01*
X438723Y492584D01*
X438899Y492525D01*
X438918D01*
X438938Y492506D01*
X439055Y492467D01*
X439230Y492369D01*
X439445Y492233D01*
X439679Y492057D01*
X439933Y491842D01*
X440167Y491589D01*
X440401Y491277D01*
X440420Y491238D01*
X440498Y491121D01*
X440576Y490945D01*
X440693Y490691D01*
X440791Y490399D01*
X440888Y490067D01*
X440947Y489677D01*
X440966Y489267D01*
Y489248D01*
Y489209D01*
Y489131D01*
X440947Y489033D01*
Y488897D01*
X440927Y488760D01*
X440869Y488429D01*
X440752Y488058D01*
X440596Y487648D01*
X440401Y487258D01*
X440264Y487063D01*
X440108Y486888D01*
Y486868D01*
X440069Y486848D01*
X440010Y486810D01*
X439952Y486731D01*
X439854Y486673D01*
X439757Y486575D01*
X439620Y486478D01*
X439484Y486380D01*
X439308Y486283D01*
X439133Y486185D01*
X438918Y486088D01*
X438684Y485990D01*
X438450Y485893D01*
X438177Y485815D01*
X437904Y485756D01*
X437592Y485698D01*
X437611D01*
X437631Y485678D01*
X437728Y485620D01*
X437884Y485522D01*
X438079Y485386D01*
X438294Y485229D01*
X438528Y485034D01*
X438762Y484839D01*
X438977Y484625D01*
X438996Y484605D01*
X439074Y484508D01*
X439191Y484371D01*
X439367Y484156D01*
X439581Y483864D01*
X439815Y483513D01*
X439972Y483298D01*
X440108Y483064D01*
X440264Y482830D01*
X440440Y482557D01*
X442000Y480060D01*
X438899D01*
X437065Y482830D01*
X437045Y482850D01*
X437026Y482888D01*
X436967Y482967D01*
X436909Y483064D01*
X436831Y483201D01*
X436733Y483318D01*
X436519Y483630D01*
X436304Y483961D01*
X436070Y484254D01*
X435855Y484527D01*
X435777Y484644D01*
X435699Y484722D01*
X435680Y484742D01*
X435641Y484781D01*
X435563Y484859D01*
X435465Y484937D01*
X435212Y485112D01*
X435075Y485190D01*
X434919Y485249D01*
X434900D01*
X434841Y485268D01*
X434744Y485307D01*
X434607Y485327D01*
X434431Y485366D01*
X434217Y485386D01*
X433944Y485405D01*
X433125D01*
Y480060D01*
X430530D01*
Y492876D01*
X436265D01*
X436441Y492857D01*
D02*
G37*
G36*
X447813Y492896D02*
X447930D01*
X448067Y492876D01*
X448418Y492818D01*
X448789Y492720D01*
X449198Y492564D01*
X449608Y492369D01*
X449979Y492096D01*
X449998D01*
X450018Y492057D01*
X450135Y491940D01*
X450291Y491764D01*
X450486Y491491D01*
X450700Y491160D01*
X450896Y490750D01*
X451071Y490262D01*
X451208Y489716D01*
X448828Y489463D01*
Y489501D01*
X448808Y489580D01*
X448769Y489716D01*
X448730Y489872D01*
X448672Y490048D01*
X448594Y490223D01*
X448496Y490399D01*
X448360Y490535D01*
X448340Y490555D01*
X448301Y490594D01*
X448223Y490652D01*
X448106Y490711D01*
X447969Y490770D01*
X447813Y490828D01*
X447638Y490867D01*
X447423Y490886D01*
X447384D01*
X447287Y490867D01*
X447150Y490848D01*
X446975Y490808D01*
X446760Y490711D01*
X446526Y490594D01*
X446311Y490418D01*
X446097Y490184D01*
X446077Y490145D01*
X446038Y490106D01*
X446019Y490048D01*
X445980Y489950D01*
X445921Y489853D01*
X445863Y489716D01*
X445824Y489560D01*
X445765Y489384D01*
X445707Y489170D01*
X445648Y488936D01*
X445590Y488663D01*
X445550Y488370D01*
X445512Y488038D01*
X445472Y487668D01*
X445434Y487278D01*
X445453Y487297D01*
X445472Y487317D01*
X445531Y487375D01*
X445590Y487453D01*
X445804Y487629D01*
X446058Y487824D01*
X446389Y488019D01*
X446780Y488195D01*
X447228Y488331D01*
X447462Y488351D01*
X447716Y488370D01*
X447872D01*
X447969Y488351D01*
X448106Y488331D01*
X448262Y488312D01*
X448613Y488214D01*
X449023Y488078D01*
X449237Y487980D01*
X449452Y487863D01*
X449686Y487726D01*
X449901Y487570D01*
X450115Y487395D01*
X450330Y487180D01*
X450349Y487161D01*
X450369Y487122D01*
X450427Y487063D01*
X450505Y486965D01*
X450583Y486848D01*
X450681Y486712D01*
X450779Y486556D01*
X450896Y486361D01*
X450993Y486166D01*
X451091Y485932D01*
X451188Y485678D01*
X451266Y485405D01*
X451344Y485132D01*
X451403Y484820D01*
X451422Y484488D01*
X451442Y484156D01*
Y484137D01*
Y484078D01*
Y483961D01*
X451422Y483825D01*
X451403Y483669D01*
X451383Y483474D01*
X451344Y483259D01*
X451305Y483025D01*
X451149Y482518D01*
X451071Y482264D01*
X450954Y481991D01*
X450817Y481738D01*
X450661Y481484D01*
X450486Y481230D01*
X450271Y480996D01*
X450252Y480977D01*
X450213Y480938D01*
X450154Y480879D01*
X450057Y480821D01*
X449959Y480723D01*
X449823Y480626D01*
X449647Y480528D01*
X449472Y480411D01*
X449276Y480294D01*
X449042Y480197D01*
X448808Y480099D01*
X448535Y480001D01*
X448262Y479943D01*
X447969Y479884D01*
X447657Y479845D01*
X447326Y479826D01*
X447248D01*
X447131Y479845D01*
X446994D01*
X446838Y479865D01*
X446643Y479904D01*
X446428Y479943D01*
X446194Y480021D01*
X445941Y480099D01*
X445687Y480197D01*
X445414Y480314D01*
X445160Y480470D01*
X444887Y480626D01*
X444614Y480840D01*
X444361Y481055D01*
X444127Y481328D01*
X444107Y481348D01*
X444068Y481406D01*
X444010Y481484D01*
X443931Y481621D01*
X443834Y481777D01*
X443736Y481991D01*
X443619Y482225D01*
X443522Y482518D01*
X443405Y482830D01*
X443288Y483201D01*
X443190Y483591D01*
X443093Y484039D01*
X443015Y484527D01*
X442956Y485073D01*
X442917Y485639D01*
X442898Y486263D01*
Y486283D01*
Y486302D01*
Y486419D01*
Y486595D01*
X442917Y486848D01*
X442937Y487122D01*
X442976Y487473D01*
X443015Y487824D01*
X443054Y488233D01*
X443210Y489053D01*
X443307Y489482D01*
X443444Y489911D01*
X443580Y490301D01*
X443756Y490691D01*
X443951Y491043D01*
X444185Y491355D01*
X444204Y491374D01*
X444244Y491413D01*
X444322Y491491D01*
X444419Y491608D01*
X444556Y491725D01*
X444712Y491842D01*
X444887Y491998D01*
X445102Y492135D01*
X445336Y492271D01*
X445590Y492428D01*
X445863Y492545D01*
X446155Y492681D01*
X446487Y492779D01*
X446819Y492857D01*
X447189Y492896D01*
X447560Y492915D01*
X447696D01*
X447813Y492896D01*
D02*
G37*
G36*
X95250Y269240D02*
X82551D01*
Y271835D01*
X93085D01*
Y278252D01*
X95250D01*
Y269240D01*
D02*
G37*
G36*
X195899Y225005D02*
X196055Y224985D01*
X196231Y224966D01*
X196426Y224946D01*
X196621Y224907D01*
X197089Y224790D01*
X197577Y224595D01*
X197811Y224497D01*
X198064Y224361D01*
X198298Y224205D01*
X198513Y224029D01*
X198533Y224010D01*
X198552Y223990D01*
X198610Y223932D01*
X198689Y223854D01*
X198786Y223756D01*
X198884Y223620D01*
X198981Y223483D01*
X199098Y223327D01*
X199332Y222956D01*
X199547Y222508D01*
X199722Y222001D01*
X199781Y221708D01*
X199820Y221415D01*
X197440Y221123D01*
Y221142D01*
Y221162D01*
X197421Y221279D01*
X197382Y221435D01*
X197323Y221649D01*
X197245Y221864D01*
X197148Y222098D01*
X197011Y222332D01*
X196835Y222527D01*
X196816Y222547D01*
X196738Y222605D01*
X196640Y222683D01*
X196484Y222761D01*
X196309Y222839D01*
X196114Y222917D01*
X195879Y222976D01*
X195626Y222995D01*
X195489D01*
X195353Y222956D01*
X195177Y222917D01*
X194982Y222859D01*
X194768Y222761D01*
X194553Y222625D01*
X194338Y222430D01*
X194319Y222410D01*
X194260Y222313D01*
X194163Y222195D01*
X194065Y222020D01*
X193987Y221786D01*
X193890Y221513D01*
X193831Y221201D01*
X193812Y220849D01*
Y220830D01*
Y220811D01*
Y220693D01*
X193831Y220518D01*
X193870Y220303D01*
X193929Y220069D01*
X194026Y219835D01*
X194143Y219582D01*
X194319Y219367D01*
X194338Y219347D01*
X194417Y219289D01*
X194514Y219191D01*
X194670Y219094D01*
X194846Y218996D01*
X195060Y218899D01*
X195294Y218840D01*
X195548Y218821D01*
X195723D01*
X195860Y218840D01*
X196016Y218860D01*
X196211Y218899D01*
X196426Y218957D01*
X196660Y219016D01*
X196387Y217026D01*
X196231D01*
X196036Y217007D01*
X195821Y216987D01*
X195587Y216948D01*
X195333Y216870D01*
X195080Y216753D01*
X194865Y216616D01*
X194846Y216597D01*
X194787Y216539D01*
X194690Y216421D01*
X194592Y216285D01*
X194494Y216109D01*
X194397Y215895D01*
X194338Y215661D01*
X194319Y215387D01*
Y215368D01*
Y215271D01*
X194338Y215153D01*
X194358Y215017D01*
X194417Y214861D01*
X194475Y214685D01*
X194573Y214510D01*
X194709Y214354D01*
X194729Y214334D01*
X194787Y214295D01*
X194865Y214237D01*
X194982Y214159D01*
X195138Y214081D01*
X195314Y214022D01*
X195528Y213983D01*
X195763Y213964D01*
X195860D01*
X195977Y213983D01*
X196133Y214022D01*
X196309Y214081D01*
X196484Y214159D01*
X196679Y214256D01*
X196855Y214412D01*
X196874Y214432D01*
X196933Y214490D01*
X196991Y214588D01*
X197089Y214724D01*
X197187Y214919D01*
X197264Y215134D01*
X197343Y215387D01*
X197382Y215680D01*
X199644Y215310D01*
Y215290D01*
X199625Y215251D01*
Y215193D01*
X199605Y215114D01*
X199547Y214900D01*
X199469Y214627D01*
X199371Y214334D01*
X199254Y214022D01*
X199098Y213710D01*
X198942Y213437D01*
X198923Y213398D01*
X198845Y213320D01*
X198747Y213203D01*
X198591Y213027D01*
X198396Y212852D01*
X198181Y212676D01*
X197908Y212500D01*
X197616Y212344D01*
X197596D01*
X197577Y212325D01*
X197460Y212286D01*
X197284Y212208D01*
X197050Y212130D01*
X196757Y212071D01*
X196445Y211993D01*
X196075Y211954D01*
X195684Y211935D01*
X195509D01*
X195392Y211954D01*
X195236Y211974D01*
X195060Y211993D01*
X194846Y212032D01*
X194631Y212071D01*
X194182Y212227D01*
X193929Y212305D01*
X193695Y212422D01*
X193461Y212559D01*
X193207Y212715D01*
X192992Y212891D01*
X192778Y213105D01*
X192758Y213125D01*
X192739Y213144D01*
X192700Y213203D01*
X192641Y213261D01*
X192485Y213456D01*
X192310Y213729D01*
X192154Y214042D01*
X191998Y214393D01*
X191900Y214802D01*
X191861Y215017D01*
Y215231D01*
Y215251D01*
Y215310D01*
X191880Y215387D01*
Y215505D01*
X191920Y215661D01*
X191959Y215817D01*
X192017Y215992D01*
X192095Y216187D01*
X192193Y216402D01*
X192310Y216616D01*
X192466Y216851D01*
X192641Y217065D01*
X192856Y217299D01*
X193109Y217514D01*
X193383Y217728D01*
X193714Y217924D01*
X193695D01*
X193656Y217943D01*
X193617D01*
X193539Y217962D01*
X193324Y218041D01*
X193090Y218138D01*
X192797Y218275D01*
X192505Y218470D01*
X192232Y218704D01*
X191959Y218977D01*
X191939Y219016D01*
X191861Y219113D01*
X191744Y219289D01*
X191627Y219523D01*
X191510Y219816D01*
X191393Y220167D01*
X191315Y220537D01*
X191295Y220967D01*
Y220986D01*
Y221045D01*
Y221123D01*
X191315Y221240D01*
X191334Y221396D01*
X191354Y221552D01*
X191393Y221747D01*
X191451Y221961D01*
X191607Y222410D01*
X191705Y222644D01*
X191822Y222878D01*
X191959Y223132D01*
X192134Y223366D01*
X192329Y223600D01*
X192544Y223834D01*
X192563Y223854D01*
X192602Y223893D01*
X192661Y223951D01*
X192758Y224010D01*
X192875Y224107D01*
X193032Y224205D01*
X193188Y224322D01*
X193383Y224419D01*
X193597Y224536D01*
X193831Y224653D01*
X194085Y224751D01*
X194358Y224829D01*
X194651Y224907D01*
X194943Y224966D01*
X195275Y225005D01*
X195606Y225024D01*
X195782D01*
X195899Y225005D01*
D02*
G37*
G36*
X212090Y211974D02*
X206999D01*
X206843Y211993D01*
X206491Y212013D01*
X206082Y212032D01*
X205692Y212071D01*
X205301Y212149D01*
X204950Y212227D01*
X204931D01*
X204892Y212247D01*
X204833Y212266D01*
X204755Y212286D01*
X204560Y212383D01*
X204287Y212500D01*
X203995Y212656D01*
X203682Y212871D01*
X203351Y213125D01*
X203039Y213417D01*
X203019D01*
X203000Y213456D01*
X202902Y213573D01*
X202766Y213749D01*
X202570Y213983D01*
X202375Y214295D01*
X202180Y214646D01*
X201985Y215036D01*
X201810Y215485D01*
Y215505D01*
X201790Y215544D01*
X201771Y215602D01*
X201751Y215700D01*
X201712Y215817D01*
X201673Y215973D01*
X201634Y216129D01*
X201595Y216324D01*
X201556Y216539D01*
X201517Y216753D01*
X201439Y217280D01*
X201400Y217865D01*
X201381Y218509D01*
Y218528D01*
Y218587D01*
Y218665D01*
Y218782D01*
X201400Y218918D01*
Y219074D01*
X201439Y219445D01*
X201478Y219874D01*
X201556Y220323D01*
X201654Y220791D01*
X201790Y221240D01*
Y221259D01*
X201810Y221298D01*
X201829Y221376D01*
X201868Y221474D01*
X201927Y221591D01*
X201985Y221727D01*
X202141Y222040D01*
X202336Y222410D01*
X202570Y222781D01*
X202844Y223151D01*
X203156Y223503D01*
X203195Y223522D01*
X203273Y223620D01*
X203429Y223737D01*
X203624Y223873D01*
X203897Y224049D01*
X204209Y224224D01*
X204560Y224380D01*
X204970Y224536D01*
X205009Y224556D01*
X205126Y224575D01*
X205301Y224614D01*
X205575Y224653D01*
X205887Y224712D01*
X206277Y224751D01*
X206745Y224771D01*
X207252Y224790D01*
X212090D01*
Y211974D01*
D02*
G37*
G36*
X95250Y283402D02*
X86004D01*
X86023Y283383D01*
X86062Y283344D01*
X86121Y283266D01*
X86218Y283168D01*
X86316Y283032D01*
X86433Y282875D01*
X86569Y282700D01*
X86706Y282485D01*
X86862Y282271D01*
X87018Y282017D01*
X87311Y281490D01*
X87603Y280886D01*
X87857Y280223D01*
X85633D01*
Y280242D01*
X85613Y280262D01*
X85594Y280320D01*
X85574Y280398D01*
X85496Y280593D01*
X85360Y280847D01*
X85204Y281159D01*
X84989Y281510D01*
X84755Y281900D01*
X84443Y282310D01*
X84424Y282329D01*
X84404Y282368D01*
X84346Y282427D01*
X84287Y282485D01*
X84111Y282680D01*
X83858Y282934D01*
X83565Y283188D01*
X83214Y283441D01*
X82824Y283675D01*
X82395Y283851D01*
Y285860D01*
X95250D01*
Y283402D01*
D02*
G37*
G36*
X49600Y33117D02*
X49854D01*
X50380Y33097D01*
X50887Y33058D01*
X51122Y33039D01*
X51336Y33000D01*
X51512Y32980D01*
X51668Y32941D01*
X51687D01*
X51726Y32922D01*
X51765Y32902D01*
X51843Y32883D01*
X52058Y32805D01*
X52311Y32668D01*
X52604Y32512D01*
X52897Y32278D01*
X53209Y32005D01*
X53501Y31673D01*
Y31654D01*
X53540Y31634D01*
X53579Y31576D01*
X53618Y31498D01*
X53677Y31400D01*
X53735Y31283D01*
X53892Y31010D01*
X54028Y30639D01*
X54145Y30210D01*
X54223Y29722D01*
X54262Y29176D01*
Y29157D01*
Y29118D01*
Y29059D01*
Y28981D01*
X54243Y28767D01*
X54204Y28493D01*
X54165Y28181D01*
X54087Y27850D01*
X53969Y27518D01*
X53833Y27206D01*
X53814Y27167D01*
X53755Y27069D01*
X53657Y26933D01*
X53540Y26757D01*
X53384Y26543D01*
X53189Y26328D01*
X52975Y26133D01*
X52741Y25938D01*
X52721Y25919D01*
X52624Y25860D01*
X52487Y25782D01*
X52331Y25704D01*
X52116Y25587D01*
X51902Y25489D01*
X51648Y25411D01*
X51395Y25333D01*
X51356D01*
X51297Y25314D01*
X51219D01*
X51122Y25294D01*
X51004Y25275D01*
X50868Y25255D01*
X50712D01*
X50536Y25236D01*
X50341Y25216D01*
X50127Y25197D01*
X49873Y25177D01*
X49619D01*
X49346Y25158D01*
X47045D01*
Y20320D01*
X44450D01*
Y33136D01*
X49366D01*
X49600Y33117D01*
D02*
G37*
%LPC*%
G36*
X436070Y490711D02*
X433125D01*
Y487453D01*
X435621D01*
X435992Y487473D01*
X436382Y487492D01*
X436753Y487512D01*
X436928Y487531D01*
X437065Y487551D01*
X437201Y487590D01*
X437299Y487609D01*
X437318D01*
X437377Y487648D01*
X437455Y487687D01*
X437572Y487726D01*
X437806Y487902D01*
X437923Y487999D01*
X438021Y488136D01*
X438040Y488156D01*
X438060Y488214D01*
X438099Y488292D01*
X438157Y488409D01*
X438216Y488546D01*
X438255Y488721D01*
X438274Y488897D01*
X438294Y489111D01*
Y489131D01*
Y489228D01*
X438274Y489345D01*
X438255Y489482D01*
X438216Y489638D01*
X438138Y489814D01*
X438060Y489989D01*
X437943Y490145D01*
X437923Y490165D01*
X437884Y490204D01*
X437806Y490282D01*
X437689Y490360D01*
X437553Y490457D01*
X437397Y490535D01*
X437201Y490594D01*
X436987Y490652D01*
X436967D01*
X436909Y490672D01*
X436811D01*
X436636Y490691D01*
X436246D01*
X436070Y490711D01*
D02*
G37*
G36*
X447326Y486556D02*
X447209D01*
X447072Y486536D01*
X446916Y486478D01*
X446721Y486419D01*
X446526Y486322D01*
X446331Y486185D01*
X446136Y485990D01*
X446116Y485971D01*
X446058Y485893D01*
X445980Y485756D01*
X445902Y485580D01*
X445804Y485346D01*
X445726Y485073D01*
X445668Y484742D01*
X445648Y484352D01*
Y484332D01*
Y484293D01*
Y484235D01*
Y484156D01*
X445687Y483942D01*
X445726Y483669D01*
X445785Y483376D01*
X445882Y483064D01*
X446019Y482771D01*
X446194Y482498D01*
X446214Y482479D01*
X446292Y482401D01*
X446409Y482303D01*
X446565Y482186D01*
X446740Y482050D01*
X446955Y481952D01*
X447189Y481874D01*
X447443Y481855D01*
X447560D01*
X447677Y481874D01*
X447833Y481913D01*
X448028Y481991D01*
X448204Y482069D01*
X448399Y482206D01*
X448574Y482381D01*
X448594Y482401D01*
X448652Y482479D01*
X448730Y482615D01*
X448808Y482791D01*
X448886Y483045D01*
X448964Y483337D01*
X449023Y483708D01*
X449042Y484137D01*
Y484156D01*
Y484196D01*
Y484254D01*
Y484352D01*
X449023Y484566D01*
X448984Y484839D01*
X448925Y485132D01*
X448828Y485444D01*
X448711Y485717D01*
X448535Y485971D01*
X448516Y485990D01*
X448457Y486068D01*
X448340Y486166D01*
X448204Y486263D01*
X448028Y486380D01*
X447813Y486458D01*
X447579Y486536D01*
X447326Y486556D01*
D02*
G37*
G36*
X30962Y475471D02*
X29265D01*
Y466985D01*
X31547D01*
X31781Y467005D01*
X32015D01*
X32288Y467044D01*
X32522Y467063D01*
X32717Y467102D01*
X32737D01*
X32834Y467141D01*
X32951Y467180D01*
X33088Y467219D01*
X33439Y467395D01*
X33615Y467492D01*
X33771Y467629D01*
X33790Y467649D01*
X33849Y467707D01*
X33907Y467785D01*
X34005Y467922D01*
X34122Y468097D01*
X34219Y468312D01*
X34336Y468565D01*
X34434Y468858D01*
Y468877D01*
X34453Y468897D01*
Y468955D01*
X34473Y469014D01*
X34512Y469209D01*
X34570Y469482D01*
X34629Y469814D01*
X34668Y470224D01*
X34688Y470692D01*
X34707Y471218D01*
Y471238D01*
Y471277D01*
Y471355D01*
Y471472D01*
Y471589D01*
X34688Y471726D01*
X34668Y472057D01*
X34648Y472428D01*
X34590Y472798D01*
X34531Y473169D01*
X34434Y473481D01*
X34414Y473520D01*
X34395Y473618D01*
X34336Y473754D01*
X34258Y473930D01*
X34141Y474144D01*
X34024Y474339D01*
X33888Y474554D01*
X33712Y474730D01*
X33693Y474749D01*
X33634Y474808D01*
X33517Y474886D01*
X33380Y474983D01*
X33224Y475081D01*
X33010Y475178D01*
X32776Y475256D01*
X32522Y475334D01*
X32503D01*
X32405Y475354D01*
X32269Y475373D01*
X32054Y475412D01*
X31917D01*
X31761Y475432D01*
X31605D01*
X31410Y475451D01*
X31196D01*
X30962Y475471D01*
D02*
G37*
G36*
X209496Y222625D02*
X207213D01*
X206979Y222605D01*
X206745D01*
X206472Y222566D01*
X206238Y222547D01*
X206043Y222508D01*
X206023D01*
X205926Y222469D01*
X205809Y222430D01*
X205672Y222391D01*
X205321Y222215D01*
X205145Y222118D01*
X204989Y221981D01*
X204970Y221961D01*
X204911Y221903D01*
X204853Y221825D01*
X204755Y221688D01*
X204638Y221513D01*
X204541Y221298D01*
X204424Y221045D01*
X204326Y220752D01*
Y220732D01*
X204307Y220713D01*
Y220655D01*
X204287Y220596D01*
X204248Y220401D01*
X204190Y220128D01*
X204131Y219796D01*
X204092Y219387D01*
X204072Y218918D01*
X204053Y218392D01*
Y218372D01*
Y218333D01*
Y218255D01*
Y218138D01*
Y218021D01*
X204072Y217885D01*
X204092Y217553D01*
X204112Y217182D01*
X204170Y216812D01*
X204229Y216441D01*
X204326Y216129D01*
X204346Y216090D01*
X204365Y215992D01*
X204424Y215856D01*
X204502Y215680D01*
X204619Y215466D01*
X204736Y215271D01*
X204872Y215056D01*
X205048Y214880D01*
X205067Y214861D01*
X205126Y214802D01*
X205243Y214724D01*
X205380Y214627D01*
X205536Y214529D01*
X205750Y214432D01*
X205984Y214354D01*
X206238Y214276D01*
X206257D01*
X206355Y214256D01*
X206491Y214237D01*
X206706Y214198D01*
X206843D01*
X206999Y214178D01*
X207155D01*
X207350Y214159D01*
X207564D01*
X207798Y214139D01*
X209496D01*
Y222625D01*
D02*
G37*
G36*
X465302Y218931D02*
X463605D01*
Y210445D01*
X465887D01*
X466121Y210465D01*
X466355D01*
X466628Y210504D01*
X466862Y210523D01*
X467057Y210562D01*
X467077D01*
X467174Y210601D01*
X467291Y210640D01*
X467428Y210679D01*
X467779Y210855D01*
X467955Y210952D01*
X468111Y211089D01*
X468130Y211108D01*
X468189Y211167D01*
X468247Y211245D01*
X468345Y211382D01*
X468462Y211557D01*
X468559Y211772D01*
X468676Y212025D01*
X468774Y212318D01*
Y212337D01*
X468793Y212357D01*
Y212416D01*
X468813Y212474D01*
X468852Y212669D01*
X468910Y212942D01*
X468969Y213274D01*
X469008Y213683D01*
X469027Y214152D01*
X469047Y214678D01*
Y214698D01*
Y214737D01*
Y214815D01*
Y214932D01*
Y215049D01*
X469027Y215186D01*
X469008Y215517D01*
X468988Y215888D01*
X468930Y216258D01*
X468871Y216629D01*
X468774Y216941D01*
X468754Y216980D01*
X468735Y217078D01*
X468676Y217214D01*
X468598Y217390D01*
X468481Y217604D01*
X468364Y217799D01*
X468228Y218014D01*
X468052Y218190D01*
X468033Y218209D01*
X467974Y218268D01*
X467857Y218346D01*
X467720Y218443D01*
X467564Y218541D01*
X467350Y218638D01*
X467116Y218716D01*
X466862Y218794D01*
X466843D01*
X466745Y218814D01*
X466609Y218833D01*
X466394Y218872D01*
X466257D01*
X466101Y218892D01*
X465945D01*
X465750Y218911D01*
X465536D01*
X465302Y218931D01*
D02*
G37*
G36*
X-7746Y364710D02*
X-10711Y360321D01*
X-7746D01*
Y364710D01*
D02*
G37*
G36*
X126921Y198706D02*
X126765D01*
X126667Y198687D01*
X126531Y198668D01*
X126374Y198648D01*
X126004Y198570D01*
X125594Y198433D01*
X125399Y198355D01*
X125184Y198238D01*
X124970Y198102D01*
X124755Y197965D01*
X124560Y197790D01*
X124365Y197595D01*
X124346Y197575D01*
X124326Y197536D01*
X124268Y197477D01*
X124209Y197380D01*
X124131Y197263D01*
X124053Y197126D01*
X123975Y196951D01*
X123877Y196756D01*
X123780Y196541D01*
X123702Y196288D01*
X123624Y196034D01*
X123546Y195722D01*
X123487Y195410D01*
X123429Y195059D01*
X123409Y194688D01*
X123390Y194278D01*
Y194259D01*
Y194181D01*
Y194064D01*
X123409Y193908D01*
X123429Y193713D01*
X123448Y193498D01*
X123468Y193264D01*
X123507Y193010D01*
X123624Y192464D01*
X123799Y191898D01*
X123917Y191625D01*
X124053Y191372D01*
X124190Y191118D01*
X124365Y190904D01*
X124385Y190884D01*
X124404Y190865D01*
X124463Y190806D01*
X124541Y190728D01*
X124638Y190650D01*
X124755Y190553D01*
X125048Y190357D01*
X125399Y190143D01*
X125828Y189967D01*
X126062Y189889D01*
X126296Y189831D01*
X126569Y189811D01*
X126843Y189792D01*
X126940D01*
X127057Y189811D01*
X127194D01*
X127350Y189831D01*
X127525Y189870D01*
X127896Y189967D01*
X127857Y189987D01*
X127760Y190045D01*
X127603Y190143D01*
X127408Y190260D01*
X127174Y190396D01*
X126901Y190533D01*
X126608Y190669D01*
X126316Y190787D01*
X127038Y192289D01*
X127057D01*
X127096Y192269D01*
X127155Y192250D01*
X127252Y192211D01*
X127369Y192152D01*
X127506Y192094D01*
X127818Y191957D01*
X128189Y191762D01*
X128598Y191528D01*
X129027Y191255D01*
X129457Y190943D01*
X129476Y190962D01*
X129535Y191040D01*
X129632Y191177D01*
X129730Y191333D01*
X129847Y191547D01*
X129983Y191781D01*
X130100Y192074D01*
X130198Y192367D01*
Y192386D01*
X130217Y192406D01*
X130237Y192523D01*
X130276Y192698D01*
X130334Y192913D01*
X130373Y193206D01*
X130412Y193537D01*
X130432Y193888D01*
X130451Y194278D01*
Y194298D01*
Y194376D01*
Y194493D01*
X130432Y194649D01*
Y194825D01*
X130393Y195039D01*
X130373Y195273D01*
X130334Y195527D01*
X130217Y196073D01*
X130042Y196619D01*
X129925Y196892D01*
X129808Y197146D01*
X129652Y197380D01*
X129476Y197595D01*
X129457Y197614D01*
X129437Y197634D01*
X129379Y197692D01*
X129300Y197770D01*
X129203Y197848D01*
X129086Y197946D01*
X128949Y198043D01*
X128793Y198160D01*
X128423Y198355D01*
X127993Y198531D01*
X127740Y198609D01*
X127486Y198668D01*
X127213Y198687D01*
X126921Y198706D01*
D02*
G37*
G36*
X201567Y476108D02*
X200096D01*
Y473329D01*
X201448D01*
X201552Y473344D01*
X201790D01*
X202058Y473359D01*
X202310Y473389D01*
X202533Y473433D01*
X202637Y473448D01*
X202711Y473478D01*
X202726Y473493D01*
X202771Y473508D01*
X202845Y473537D01*
X202934Y473597D01*
X203038Y473656D01*
X203142Y473745D01*
X203246Y473835D01*
X203335Y473954D01*
X203350Y473968D01*
X203365Y474013D01*
X203410Y474087D01*
X203454Y474176D01*
X203484Y474280D01*
X203529Y474414D01*
X203543Y474563D01*
X203558Y474711D01*
Y474741D01*
Y474800D01*
X203543Y474904D01*
X203514Y475023D01*
X203484Y475157D01*
X203425Y475306D01*
X203350Y475454D01*
X203246Y475588D01*
X203232Y475603D01*
X203187Y475647D01*
X203127Y475707D01*
X203023Y475781D01*
X202920Y475855D01*
X202771Y475930D01*
X202622Y475989D01*
X202444Y476034D01*
X202429D01*
X202370Y476049D01*
X202281Y476063D01*
X202147Y476078D01*
X201954D01*
X201701Y476093D01*
X201567Y476108D01*
D02*
G37*
G36*
X413873Y92107D02*
X413717D01*
X413620Y92087D01*
X413483Y92067D01*
X413327Y92048D01*
X412957Y91970D01*
X412547Y91833D01*
X412352Y91755D01*
X412137Y91638D01*
X411923Y91502D01*
X411708Y91365D01*
X411513Y91190D01*
X411318Y90995D01*
X411298Y90975D01*
X411279Y90936D01*
X411220Y90878D01*
X411162Y90780D01*
X411084Y90663D01*
X411006Y90526D01*
X410928Y90351D01*
X410830Y90156D01*
X410733Y89941D01*
X410655Y89688D01*
X410577Y89434D01*
X410499Y89122D01*
X410440Y88810D01*
X410382Y88459D01*
X410362Y88088D01*
X410342Y87678D01*
Y87659D01*
Y87581D01*
Y87464D01*
X410362Y87308D01*
X410382Y87113D01*
X410401Y86898D01*
X410420Y86664D01*
X410460Y86410D01*
X410577Y85864D01*
X410752Y85299D01*
X410869Y85025D01*
X411006Y84772D01*
X411142Y84518D01*
X411318Y84304D01*
X411337Y84284D01*
X411357Y84265D01*
X411415Y84206D01*
X411493Y84128D01*
X411591Y84050D01*
X411708Y83953D01*
X412001Y83757D01*
X412352Y83543D01*
X412781Y83367D01*
X413015Y83289D01*
X413249Y83231D01*
X413522Y83211D01*
X413795Y83192D01*
X413893D01*
X414010Y83211D01*
X414146D01*
X414302Y83231D01*
X414478Y83270D01*
X414849Y83367D01*
X414810Y83387D01*
X414712Y83445D01*
X414556Y83543D01*
X414361Y83660D01*
X414127Y83796D01*
X413854Y83933D01*
X413561Y84069D01*
X413269Y84187D01*
X413990Y85689D01*
X414010D01*
X414049Y85669D01*
X414107Y85650D01*
X414205Y85611D01*
X414322Y85552D01*
X414459Y85494D01*
X414771Y85357D01*
X415141Y85162D01*
X415551Y84928D01*
X415980Y84655D01*
X416409Y84343D01*
X416429Y84362D01*
X416487Y84440D01*
X416585Y84577D01*
X416682Y84733D01*
X416799Y84947D01*
X416936Y85181D01*
X417053Y85474D01*
X417150Y85767D01*
Y85786D01*
X417170Y85806D01*
X417189Y85923D01*
X417229Y86098D01*
X417287Y86313D01*
X417326Y86606D01*
X417365Y86937D01*
X417385Y87288D01*
X417404Y87678D01*
Y87698D01*
Y87776D01*
Y87893D01*
X417385Y88049D01*
Y88225D01*
X417346Y88439D01*
X417326Y88673D01*
X417287Y88927D01*
X417170Y89473D01*
X416994Y90019D01*
X416877Y90292D01*
X416760Y90546D01*
X416604Y90780D01*
X416429Y90995D01*
X416409Y91014D01*
X416390Y91034D01*
X416331Y91092D01*
X416253Y91170D01*
X416156Y91248D01*
X416039Y91346D01*
X415902Y91443D01*
X415746Y91560D01*
X415375Y91755D01*
X414946Y91931D01*
X414693Y92009D01*
X414439Y92067D01*
X414166Y92087D01*
X413873Y92107D01*
D02*
G37*
G36*
X48976Y30971D02*
X47045D01*
Y27323D01*
X48820D01*
X48956Y27343D01*
X49268D01*
X49619Y27362D01*
X49951Y27401D01*
X50244Y27460D01*
X50380Y27479D01*
X50478Y27518D01*
X50497Y27538D01*
X50556Y27557D01*
X50653Y27596D01*
X50770Y27674D01*
X50907Y27752D01*
X51043Y27869D01*
X51180Y27986D01*
X51297Y28142D01*
X51316Y28162D01*
X51336Y28220D01*
X51395Y28318D01*
X51453Y28435D01*
X51492Y28572D01*
X51551Y28747D01*
X51570Y28942D01*
X51590Y29137D01*
Y29176D01*
Y29254D01*
X51570Y29391D01*
X51531Y29547D01*
X51492Y29722D01*
X51414Y29918D01*
X51316Y30113D01*
X51180Y30288D01*
X51160Y30308D01*
X51102Y30366D01*
X51024Y30444D01*
X50887Y30542D01*
X50751Y30639D01*
X50556Y30737D01*
X50361Y30815D01*
X50127Y30873D01*
X50107D01*
X50029Y30893D01*
X49912Y30912D01*
X49736Y30932D01*
X49483D01*
X49151Y30951D01*
X48976Y30971D01*
D02*
G37*
%LPD*%
D29*
X214630Y398780D02*
G03*
X214630Y398780I-25400J0D01*
G01*
X256998Y254000D02*
G03*
X256998Y254000I-28398J0D01*
G01*
X355600Y88900D02*
G03*
X355600Y88900I-25400J0D01*
G01*
X165100Y12700D02*
G03*
X165100Y12700I-25400J0D01*
G01*
X204470Y405130D02*
Y412750D01*
X200660Y408940D02*
X208280D01*
X245110Y262890D02*
Y270510D01*
X241300Y266700D02*
X248920D01*
X-24500Y241300D02*
X63500D01*
Y38100D02*
Y241300D01*
X-24500Y38100D02*
X63500D01*
X-25400D02*
Y241300D01*
X320040Y100330D02*
Y107950D01*
X316230Y104140D02*
X323850D01*
X149860Y-6350D02*
Y1270D01*
X146050Y-2540D02*
X153670D01*
X197180Y491345D02*
X297180D01*
Y611835D01*
X197180Y612775D02*
X297180D01*
X197180Y491345D02*
Y612775D01*
D30*
X80400Y304800D02*
G03*
X80400Y304800I-55000J0D01*
G01*
X185929Y308610D02*
G03*
X185929Y308610I-46229J0D01*
G01*
X44450Y279400D02*
X57150D01*
X50800Y273050D02*
Y285750D01*
Y120650D02*
X63500D01*
X50800D02*
Y158750D01*
X63500D01*
X452870Y263020D02*
Y473020D01*
X430870Y263020D02*
X452870D01*
X261870D02*
X433870D01*
X261870Y473020D02*
X452870D01*
X261870Y263020D02*
Y473020D01*
D31*
X234950Y178500D02*
G03*
X247650Y178500I6350J0D01*
G01*
X469900Y170180D02*
Y180340D01*
Y99060D02*
Y109220D01*
X480060D02*
Y170180D01*
X459740D02*
X480060D01*
X459740Y109220D02*
Y170180D01*
Y109220D02*
X480060D01*
X21272Y457835D02*
X122872D01*
Y432435D02*
Y457835D01*
X21272Y432435D02*
X122872D01*
X21272D02*
Y457835D01*
X6033Y445135D02*
X21272D01*
X122872D02*
X138112D01*
X117200Y180500D02*
X165200D01*
X117200Y73500D02*
X165200D01*
Y180500D01*
X117200Y73500D02*
Y180500D01*
X122200Y73500D02*
Y180500D01*
X380900Y98900D02*
X428900D01*
X380900Y205900D02*
X428900D01*
X380900Y98900D02*
Y205900D01*
X428900Y98900D02*
Y205900D01*
X423900Y98900D02*
Y205900D01*
X267800Y75500D02*
Y178500D01*
X214800Y75500D02*
Y178500D01*
Y75500D02*
X267800D01*
X247650Y178500D02*
X267800D01*
X214800D02*
X234950D01*
M02*
