%FSLAX44Y44*%
%MOMM*%
G71*
G01*
G75*
G04 Layer_Color=16711935*
%ADD10R,1.7780X1.1430*%
%ADD11R,1.1430X1.7780*%
%ADD12R,1.0700X2.1600*%
%ADD13C,1.2700*%
%ADD14C,0.6350*%
%ADD15C,0.5080*%
%ADD16C,1.5240*%
%ADD17C,2.5000*%
%ADD18C,1.8000*%
%ADD19C,2.4000*%
%ADD20O,2.0000X1.8000*%
%ADD21C,2.0000*%
%ADD22R,1.7000X2.0000*%
%ADD23O,1.7000X2.0000*%
%ADD24R,2.0000X1.8000*%
%ADD25C,3.0000*%
%ADD26R,1.8000X1.8000*%
%ADD27O,2.5000X3.0000*%
%ADD28C,6.0000*%
%ADD29C,0.1500*%
%ADD30C,0.2540*%
%ADD31C,0.2000*%
%ADD32R,1.9812X1.3462*%
%ADD33R,1.3462X1.9812*%
%ADD34R,1.2732X2.3632*%
%ADD35C,1.7272*%
%ADD36C,2.7032*%
%ADD37C,2.0032*%
%ADD38C,2.6032*%
%ADD39O,2.2032X2.0032*%
%ADD40C,2.2032*%
%ADD41R,1.9032X2.2032*%
%ADD42O,1.9032X2.2032*%
%ADD43R,2.2032X2.0032*%
%ADD44C,3.2032*%
%ADD45R,2.0032X2.0032*%
%ADD46O,2.7032X3.2032*%
%ADD47C,6.2032*%
G36*
X123323Y528060D02*
X123454Y528033D01*
X123580Y527991D01*
X123699Y527932D01*
X123810Y527858D01*
X123910Y527770D01*
X123998Y527670D01*
X124072Y527559D01*
X124131Y527440D01*
X124173Y527313D01*
X124199Y527183D01*
X124208Y527050D01*
Y494030D01*
X124199Y493897D01*
X124173Y493767D01*
X124131Y493640D01*
X124072Y493521D01*
X123998Y493410D01*
X123910Y493310D01*
X123810Y493222D01*
X123699Y493148D01*
X123580Y493089D01*
X123454Y493046D01*
X123323Y493021D01*
X123190Y493012D01*
X105793D01*
Y445135D01*
X105785Y445002D01*
X105758Y444871D01*
X105716Y444745D01*
X105657Y444626D01*
X105583Y444515D01*
X105495Y444415D01*
X105395Y444327D01*
X105284Y444253D01*
X105165Y444194D01*
X105038Y444151D01*
X104908Y444126D01*
X104775Y444117D01*
X39370D01*
X39237Y444126D01*
X39107Y444151D01*
X38980Y444194D01*
X38861Y444253D01*
X38750Y444327D01*
X38650Y444415D01*
X37380Y445685D01*
X37292Y445785D01*
X37218Y445896D01*
X37159Y446015D01*
X37116Y446142D01*
X37090Y446272D01*
X37082Y446405D01*
Y492377D01*
X20320D01*
X20187Y492385D01*
X20057Y492411D01*
X19930Y492454D01*
X19811Y492513D01*
X19700Y492587D01*
X19600Y492675D01*
X19512Y492775D01*
X19438Y492886D01*
X19379Y493005D01*
X19337Y493131D01*
X19310Y493262D01*
X19302Y493395D01*
Y527050D01*
X19310Y527183D01*
X19337Y527313D01*
X19379Y527440D01*
X19438Y527559D01*
X19512Y527670D01*
X19600Y527770D01*
X19700Y527858D01*
X19811Y527932D01*
X19930Y527991D01*
X20057Y528033D01*
X20187Y528060D01*
X20320Y528068D01*
X123190D01*
X123323Y528060D01*
D02*
G37*
D32*
X88900Y152400D02*
D03*
Y125222D02*
D03*
X317500Y139700D02*
D03*
Y166878D02*
D03*
X227330Y327660D02*
D03*
Y354838D02*
D03*
D33*
X128270Y54610D02*
D03*
X155448D02*
D03*
X266700Y203200D02*
D03*
X239522D02*
D03*
D34*
X105092Y387985D02*
D03*
X88092D02*
D03*
X71093D02*
D03*
X54092D02*
D03*
X37092D02*
D03*
D35*
X189230Y388620D02*
D03*
Y408940D02*
D03*
X320040Y88900D02*
D03*
X340360D02*
D03*
X149860Y12700D02*
D03*
X129540D02*
D03*
D36*
X50800Y304800D02*
D03*
X0D02*
D03*
D37*
X469900Y190500D02*
D03*
Y88900D02*
D03*
X279400D02*
D03*
Y114300D02*
D03*
Y139700D02*
D03*
Y165100D02*
D03*
X203200Y88900D02*
D03*
Y114300D02*
D03*
Y139700D02*
D03*
D38*
X148272Y445135D02*
D03*
X-4128D02*
D03*
D39*
X228600Y266700D02*
D03*
Y241300D02*
D03*
X139700Y152400D02*
D03*
Y127000D02*
D03*
X406400D02*
D03*
Y152400D02*
D03*
D40*
X139700Y283210D02*
D03*
Y334010D02*
D03*
D41*
X31750Y88900D02*
D03*
D42*
X6350D02*
D03*
X31750Y114300D02*
D03*
X6350D02*
D03*
X31750Y139700D02*
D03*
X6350D02*
D03*
X31750Y165100D02*
D03*
X6350D02*
D03*
X31750Y190500D02*
D03*
X6350D02*
D03*
D43*
X139700Y101600D02*
D03*
X406400Y177800D02*
D03*
D44*
X296870Y429020D02*
D03*
X416870D02*
D03*
X296870Y307020D02*
D03*
X416870D02*
D03*
X356870Y287020D02*
D03*
D45*
X203200Y165100D02*
D03*
D46*
X220980Y511175D02*
D03*
X271780D02*
D03*
D47*
X0Y0D02*
D03*
X450000D02*
D03*
X0Y577850D02*
D03*
X450000D02*
D03*
M02*
